<svg version="1.1" id="Layer_1" xmlns="http://www.w3.org/2000/svg" xmlns:xlink="http://www.w3.org/1999/xlink" x="0px" y="0px"
	 width="100%" viewBox="0 0 288 319" enable-background="new 0 0 288 319" xml:space="preserve">
<path fill="#000000" opacity="1.000000" stroke="none" 
	d="
M193.000000,320.000000 
	C128.666672,320.000000 64.833359,320.000000 1.000026,320.000000 
	C1.000017,213.666702 1.000017,107.333397 1.000009,1.000068 
	C96.999947,1.000046 192.999893,1.000046 288.999878,1.000023 
	C288.999939,107.333260 288.999939,213.666519 288.999969,319.999878 
	C257.166656,320.000000 225.333328,320.000000 193.000000,320.000000 
M189.971619,92.419228 
	C189.661652,92.248207 189.351669,92.077187 189.016891,91.983109 
	C189.016891,91.983109 189.093506,91.957268 188.971634,91.418243 
	C188.661850,91.247498 188.352066,91.076752 188.016907,90.983070 
	C188.016907,90.983070 188.093719,90.956947 187.971619,90.418068 
	C187.661850,90.247360 187.352081,90.076660 187.016953,89.983040 
	C187.016953,89.983040 187.093781,89.956932 186.971436,89.418106 
	C186.661667,89.247375 186.351913,89.076645 186.012985,88.989685 
	C186.012985,88.989685 186.084503,88.937195 185.880432,88.295609 
	C183.938126,86.932182 181.995819,85.568748 179.274017,84.006271 
	C178.043198,83.623413 176.836792,83.098099 175.577347,82.882225 
	C169.980225,81.922905 164.499802,81.725128 159.983124,85.978111 
	C159.983124,85.978111 159.935913,85.890572 159.241928,85.985237 
	C153.777908,91.206284 148.271835,96.384926 142.907181,101.706123 
	C142.289383,102.318924 142.140259,103.784760 142.319122,104.754517 
	C143.107513,109.028923 143.884659,113.331482 145.159790,117.471718 
	C145.479019,118.508118 148.600555,119.812767 148.797058,119.584557 
	C151.403412,116.557503 153.717514,113.278801 156.032867,110.026031 
	C156.032867,110.026031 156.019958,110.105606 156.533188,109.917145 
	C156.724930,109.616890 156.916672,109.316635 157.024857,109.032280 
	C157.024857,109.032280 157.057220,109.110947 157.724045,109.025208 
	C158.563202,108.378929 159.402359,107.732643 160.737793,106.881340 
	C161.188965,106.337517 161.640121,105.793686 162.701508,104.915024 
	C164.106873,105.012642 165.512253,105.110260 167.057190,105.629555 
	C167.230896,105.897820 167.476791,106.047531 168.117645,106.674805 
	C180.058136,118.160118 191.998627,129.645432 204.201065,141.716492 
	C205.761047,143.159576 207.321030,144.602661 208.984375,146.781204 
	C209.043961,147.520294 209.103531,148.259399 208.883270,149.570984 
	C207.902344,150.665237 206.921402,151.759491 205.439301,153.056656 
	C205.238297,153.348022 205.037277,153.639389 204.286819,154.169708 
	C203.498978,155.056580 202.711136,155.943451 201.373169,157.082870 
	C200.858582,157.692001 200.343979,158.301117 199.280121,159.155365 
	C198.491241,160.047638 197.702362,160.939911 196.366852,162.089920 
	C195.868011,162.708084 195.369171,163.326233 194.267517,164.237991 
	C192.859253,166.027252 191.450989,167.816498 189.556503,170.223526 
	C193.767181,170.883545 196.892014,171.373352 200.704285,172.235168 
	C203.930481,172.766510 207.179764,176.052719 210.373138,172.210556 
	C212.335022,169.850052 214.232864,167.436325 216.676392,164.852631 
	C217.135452,164.293304 217.594498,163.733978 218.660019,162.863525 
	C220.303955,161.233643 221.776718,159.371429 223.620590,158.012909 
	C233.089691,151.036255 234.201965,133.476715 223.854034,126.311012 
	C223.293839,125.856651 222.733643,125.402290 221.855057,124.331055 
	C220.608734,123.165298 219.362411,121.999535 218.017609,120.898178 
	C218.017609,120.898178 218.133438,120.877441 217.917725,120.407738 
	C217.632507,120.223091 217.347305,120.038452 216.837860,119.313873 
	C216.242508,118.826958 215.647171,118.340042 214.789200,117.242615 
	C209.158310,111.844414 203.527420,106.446220 197.941406,100.431122 
	C197.323715,99.925911 196.706039,99.420700 196.013580,98.944885 
	C196.013580,98.944885 196.088943,98.972679 195.959122,98.433205 
	C195.648529,98.259041 195.337921,98.084877 195.014923,97.984962 
	C195.014923,97.984962 195.088974,97.971375 194.960663,97.432045 
	C194.650375,97.258171 194.340073,97.084297 194.015213,96.984734 
	C194.015213,96.984734 194.089386,96.969444 193.961319,96.431427 
	C193.652069,96.257156 193.342819,96.082886 193.015930,95.983925 
	C193.015930,95.983925 193.090500,95.963371 192.971741,95.421623 
	C192.660751,95.250336 192.349777,95.079048 192.016373,94.983627 
	C192.016373,94.983627 192.092102,94.960785 191.970825,94.420509 
	C191.660233,94.249504 191.349625,94.078506 191.016464,93.983543 
	C191.016464,93.983543 191.092255,93.960144 190.970932,93.420410 
	C190.660828,93.249168 190.350739,93.077927 190.016739,92.983261 
	C190.016739,92.983261 190.093033,92.958450 189.971619,92.419228 
M214.971878,215.028381 
	C214.971878,215.028381 214.902786,215.043304 215.022552,215.584915 
	C215.333694,215.756104 215.644852,215.927307 215.971161,216.028854 
	C215.971161,216.028854 215.901718,216.044968 216.026276,216.584702 
	C216.337601,216.754257 216.648911,216.923813 216.974930,217.024811 
	C216.974930,217.024811 216.906326,217.039322 217.036392,217.575531 
	C217.345581,217.747879 217.654755,217.920242 217.976028,218.024063 
	C217.976028,218.024063 217.907394,218.035522 218.032028,218.575394 
	C218.342194,218.748764 218.652359,218.922134 218.973846,219.026337 
	C218.973846,219.026337 218.904938,219.039169 219.026794,219.580627 
	C219.337952,219.752533 219.649109,219.924454 219.972900,220.027161 
	C219.972900,220.027161 219.903778,220.040237 220.027481,220.581039 
	C220.338623,220.752655 220.649780,220.924271 220.973297,221.026733 
	C220.973297,221.026733 220.904190,221.039307 221.027725,221.580490 
	C221.339081,221.752167 221.650452,221.923843 221.973663,222.026413 
	C221.973663,222.026413 221.904648,222.038712 222.028244,222.580185 
	C222.339920,222.751541 222.651581,222.922913 222.974686,223.025314 
	C222.974686,223.025314 222.905624,223.036072 223.031784,223.576645 
	C223.343033,223.748947 223.654282,223.921249 223.979492,224.024536 
	C223.979492,224.024536 223.912781,224.047073 224.163483,224.739029 
	C226.017029,225.863083 227.936752,227.485992 229.042999,224.059830 
	C229.042999,224.059830 229.037140,224.205505 229.688431,224.568909 
	C230.044434,223.755447 230.400436,222.942001 230.973938,221.200241 
	C230.986938,217.412338 231.350571,213.586105 230.941299,209.844376 
	C230.036606,201.573273 226.557678,194.509171 219.473022,188.927856 
	C219.263275,188.620270 219.053543,188.312668 218.778168,187.330109 
	C216.541412,185.853760 214.304657,184.377411 212.026108,182.970337 
	C212.026108,182.970337 212.104843,182.951660 211.921188,182.470062 
	C211.621918,182.368942 211.322662,182.267822 210.396103,181.879715 
	C208.978516,181.235992 207.560928,180.592270 205.777267,179.205399 
	C199.155991,179.089264 192.534729,178.973129 185.298141,178.964966 
	C184.883286,178.940826 184.468414,178.916687 183.739441,178.244843 
	C177.855133,175.916382 173.151810,172.045853 168.858353,167.446640 
	C164.465591,162.741043 159.694107,158.388977 155.047836,153.973755 
	C155.047836,153.973755 155.128677,153.914612 155.047729,153.208405 
	C152.713058,151.094421 150.378403,148.980438 147.789169,146.280396 
	C146.241241,144.837799 144.693329,143.395203 142.821274,141.306213 
	C140.260971,137.820999 138.347015,134.217346 138.977356,129.584000 
	C139.571426,125.217209 140.599976,120.609612 139.790024,116.426949 
	C138.755966,111.087067 136.068680,106.067337 134.018921,100.200806 
	C131.036102,97.093803 128.053299,93.986801 125.041016,90.954514 
	C125.041016,90.954514 125.117477,90.979126 124.932175,90.457008 
	C124.627480,90.264160 124.322784,90.071304 124.057678,89.955727 
	C124.057678,89.955727 124.132370,89.911453 124.078911,89.166237 
	C122.049377,88.141899 120.019852,87.117561 117.601913,85.971992 
	C117.601913,85.971992 117.196976,85.932304 117.063873,85.100594 
	C109.228378,82.487328 101.393250,80.263252 93.212181,85.211250 
	C93.212181,85.211250 93.088509,85.553123 92.600426,85.905060 
	C93.039085,87.009354 93.477753,88.113655 94.215683,89.801262 
	C97.751945,93.221710 101.288208,96.642159 105.064583,100.560165 
	C105.371307,100.752129 105.678024,100.944092 105.961266,101.043213 
	C105.961266,101.043213 105.869835,101.071686 106.122520,101.619698 
	C106.725342,102.137131 107.328156,102.654572 108.188171,103.747322 
	C109.171913,104.831207 110.155655,105.915085 111.018517,107.843040 
	C110.306969,120.454262 106.894554,125.665825 97.882454,127.876427 
	C96.938431,128.108002 95.941292,128.159698 95.026306,128.466415 
	C91.726250,129.572601 89.116951,128.982697 86.679512,126.227539 
	C83.730881,122.894569 80.328087,119.963379 77.045921,117.005791 
	C77.045921,117.005791 77.156418,116.880997 77.120064,116.128952 
	C75.934921,115.002403 74.930939,113.457359 73.522125,112.847504 
	C71.414528,111.935158 68.878609,111.006165 66.814835,111.445694 
	C65.859184,111.649216 65.287102,115.033508 65.078552,117.031845 
	C64.788033,119.815636 64.424217,122.807304 65.129745,125.430878 
	C66.296310,129.768890 68.291565,133.884064 69.978317,138.001587 
	C69.978317,138.001587 69.895905,138.058640 69.987366,138.796387 
	C72.312790,141.902390 74.638222,145.008377 77.121330,148.583771 
	C77.323799,148.862701 77.591209,149.047836 78.214920,149.760269 
	C86.862061,158.183228 97.546410,158.492340 108.685188,157.865036 
	C112.046425,157.675720 115.511108,159.323196 119.097832,160.602524 
	C119.372429,160.783569 119.647026,160.964615 120.162987,161.699341 
	C121.057404,162.493759 121.951820,163.288177 123.066757,164.574905 
	C123.367111,164.760956 123.667465,164.946991 123.941864,165.061890 
	C123.941864,165.061890 123.873528,165.094513 124.111542,165.645172 
	C124.709496,166.161316 125.307449,166.677444 126.054939,167.622192 
	C126.232780,167.893555 126.482498,168.050598 127.117805,168.688980 
	C129.713989,171.191376 132.310165,173.693756 135.152451,176.739624 
	C136.036316,177.523712 136.920181,178.307816 138.113220,179.679443 
	C139.706573,181.178024 141.299927,182.676605 143.146561,184.722229 
	C144.039932,185.514954 144.933319,186.307663 146.113281,187.680389 
	C147.380234,188.840973 148.647171,190.001572 150.072769,191.600845 
	C150.256912,191.877869 150.513687,192.039551 151.114075,192.657715 
	C152.051529,193.493652 152.988968,194.329590 154.099228,195.626984 
	C154.305786,195.901260 154.575851,196.079025 154.964310,196.936462 
	C155.627731,199.921692 156.674530,202.882278 156.868210,205.897690 
	C157.189941,210.906174 156.458618,216.012756 157.075043,220.965469 
	C158.298676,230.797028 162.317902,239.129105 170.573166,245.421631 
	C178.499420,251.463394 187.354752,253.205856 196.837585,252.873398 
	C199.227112,252.789627 201.565582,251.249756 203.927505,250.379013 
	C202.642273,248.237183 201.657715,245.823563 200.014359,244.005402 
	C195.432755,238.936478 190.469177,234.211273 185.927444,229.109131 
	C185.070038,228.145935 185.027969,225.971512 185.358795,224.527618 
	C186.325928,220.306488 187.671631,216.172119 189.240356,211.360031 
	C190.278015,210.881592 191.270844,210.183289 192.360748,209.961075 
	C198.563278,208.696365 204.812561,203.038544 211.102676,210.671387 
	C212.050446,211.808884 212.998230,212.946365 213.978149,214.019073 
	C213.978149,214.019073 213.907562,214.034897 214.030807,214.574982 
	C214.340530,214.749344 214.650253,214.923691 214.971878,215.028381 
M81.974037,219.026093 
	C81.974037,219.026093 81.905022,219.037872 82.032501,219.576904 
	C82.342636,219.749634 82.652771,219.922379 82.974136,220.026016 
	C82.974136,220.026016 82.905128,220.037811 83.033539,220.576248 
	C83.343422,220.749084 83.653297,220.921936 83.974396,221.025742 
	C83.974396,221.025742 83.905434,221.037521 84.033943,221.575058 
	C84.342911,221.748917 84.651878,221.922791 84.972939,222.027344 
	C84.972939,222.027344 84.903854,222.040771 85.027061,222.580475 
	C85.337288,222.753067 85.647507,222.925659 85.927162,223.024826 
	C85.927162,223.024826 85.919640,223.104065 86.034576,223.601883 
	C86.318321,223.770996 86.602058,223.940109 87.033318,224.602661 
	C87.319473,224.770096 87.605629,224.937531 88.041664,225.598831 
	C88.329330,225.766479 88.617004,225.934143 89.043968,226.592514 
	C89.328392,226.761566 89.612823,226.930603 90.079742,227.659225 
	C90.678856,228.134628 91.277962,228.610031 91.936760,229.090576 
	C91.936760,229.090576 91.907494,229.038284 92.033508,229.576233 
	C92.342865,229.748962 92.652222,229.921692 92.974518,230.025558 
	C92.974518,230.025558 92.905769,230.038986 93.033104,230.576096 
	C93.341911,230.749435 93.650719,230.922791 93.973282,231.026947 
	C93.973282,231.026947 93.904381,231.042130 94.028038,231.581146 
	C94.337669,231.753250 94.647301,231.925369 94.972092,232.028061 
	C94.972092,232.028061 94.902824,232.043884 95.028610,232.582458 
	C95.338699,232.753555 95.648788,232.924652 95.973221,233.026749 
	C95.973221,233.026749 95.904121,233.040527 96.034035,233.576828 
	C96.343079,233.749634 96.652122,233.922440 96.973961,234.026215 
	C96.973961,234.026215 96.905128,234.040039 97.030403,234.578873 
	C97.340294,234.751251 97.650185,234.923645 97.973183,235.026917 
	C97.973183,235.026917 97.904083,235.040039 98.030426,235.578979 
	C98.340660,235.751312 98.650887,235.923645 98.973251,236.026794 
	C98.973251,236.026794 98.904129,236.039246 99.029953,236.578918 
	C99.340553,236.751221 99.651146,236.923508 99.973511,237.026596 
	C99.973511,237.026596 99.904472,237.039276 100.029305,237.579208 
	C100.339943,237.751373 100.650581,237.923538 100.973495,238.026581 
	C100.973495,238.026581 100.904465,238.039444 101.029167,238.579361 
	C101.339798,238.751450 101.650421,238.923553 101.973526,239.026550 
	C101.973526,239.026550 101.904518,239.039566 102.029388,239.579239 
	C102.339859,239.751389 102.650330,239.923538 102.973526,240.026596 
	C102.973526,240.026596 102.904579,240.040085 103.029572,240.579224 
	C103.339592,240.751526 103.649605,240.923843 103.973099,241.027008 
	C103.973099,241.027008 103.904030,241.040863 104.029350,241.579239 
	C104.338676,241.752518 104.648003,241.925797 104.975243,242.026169 
	C104.975243,242.026169 104.908081,242.059692 105.079369,242.671555 
	C106.031059,243.477844 106.982750,244.284134 107.972321,245.028030 
	C107.972321,245.028030 107.899399,245.031616 108.047020,245.619888 
	C108.369148,245.861206 108.691277,246.102539 109.153381,246.824890 
	C109.671692,247.213257 110.190010,247.601624 111.071716,248.446152 
	C111.390762,248.653381 111.709816,248.860611 112.010658,248.978668 
	C112.010658,248.978668 111.921074,248.994720 112.076683,249.504837 
	C112.382545,249.611847 112.688400,249.718842 113.740570,250.011002 
	C121.151550,253.692902 128.567108,255.193420 136.643311,249.957870 
	C137.158722,249.639893 137.674118,249.321915 138.712784,248.884949 
	C139.141617,248.334778 139.570465,247.784607 140.693741,247.046249 
	C142.495193,245.047836 144.296646,243.049423 146.031067,241.024780 
	C146.031067,241.024780 146.042206,241.095901 146.582031,240.973236 
	C146.753738,240.663147 146.925446,240.353058 147.027802,240.027679 
	C147.027802,240.027679 147.043732,240.096863 147.582794,239.972977 
	C147.754303,239.663071 147.925812,239.353149 148.027908,239.027832 
	C148.027908,239.027832 148.043884,239.097092 148.581665,238.973862 
	C148.755188,238.665665 148.928726,238.357468 149.031662,238.031357 
	C149.031662,238.031357 149.050369,238.101746 149.590622,237.984756 
	C149.762604,237.675110 149.934586,237.365463 150.034332,237.034393 
	C150.034332,237.034393 150.057144,237.106201 150.597076,236.986862 
	C150.766373,236.676025 150.935669,236.365189 151.033463,236.033035 
	C151.033463,236.033035 151.054703,236.104568 151.590179,235.976746 
	C151.760559,235.667557 151.930939,235.358383 152.021622,235.021866 
	C152.021622,235.021866 152.071487,235.089767 152.725784,234.868774 
	C155.704254,232.652023 154.915115,230.258041 153.058319,226.983734 
	C152.397156,222.583694 151.736008,218.183670 151.074844,213.783630 
	C150.560562,213.752640 150.046295,213.721634 149.532028,213.690643 
	C145.233322,218.400162 140.846359,223.033142 136.670410,227.849106 
	C134.325027,230.553940 132.631058,230.217194 130.237320,227.786850 
	C124.582764,222.045883 118.654129,216.574890 112.836746,210.397598 
	C112.239754,209.878082 111.642769,209.358566 110.855301,208.320648 
	C110.291588,207.867432 109.727875,207.414200 108.883507,206.391769 
	C107.973022,205.539246 107.062538,204.686737 106.074341,203.882584 
	C106.074341,203.882584 106.126434,203.957825 105.997482,203.403305 
	C105.677643,203.228378 105.357796,203.053436 105.052574,202.970886 
	C105.052574,202.970886 105.144058,202.951447 105.005539,202.397247 
	C104.684937,202.219986 104.364334,202.042725 104.050880,201.962082 
	C104.050880,201.962082 104.146927,201.949371 104.005257,201.396133 
	C103.684807,201.218231 103.364357,201.040314 103.077766,200.958527 
	C103.077766,200.958527 103.171608,200.918777 102.984276,200.372528 
	C102.646057,200.270187 102.307838,200.167831 101.360573,199.724167 
	C98.294266,196.797562 95.227959,193.870972 91.961441,190.427887 
	C91.654533,190.237595 91.347618,190.047318 91.045052,189.958481 
	C91.045052,189.958481 91.146126,189.948593 90.961632,189.428009 
	C90.656166,189.240005 90.350700,189.052002 90.048386,188.956406 
	C90.048386,188.956406 90.140411,188.947357 89.964096,188.424484 
	C89.658150,188.239059 89.352211,188.053619 89.085587,187.931183 
	C89.085587,187.931183 89.141388,187.882202 89.077461,187.100723 
	C89.874886,185.094803 90.226997,182.711594 91.549553,181.150589 
	C96.367157,175.464462 101.509079,170.053101 106.602821,164.456772 
	C101.569473,163.922150 96.775223,163.217636 91.958244,162.986282 
	C89.659386,162.875854 87.317352,163.664200 84.433960,164.016052 
	C84.255325,164.324997 84.076691,164.633926 83.968796,164.968872 
	C83.968796,164.968872 83.947624,164.896545 83.413795,165.028458 
	C83.243347,165.337296 83.072899,165.646149 82.971947,165.971909 
	C82.971947,165.971909 82.954819,165.902466 82.423004,166.034393 
	C82.248093,166.339966 82.073181,166.645523 81.968765,166.969208 
	C81.968765,166.969208 81.949852,166.898926 81.409302,167.014954 
	C81.237038,167.324554 81.064766,167.634140 80.964622,167.964798 
	C80.964622,167.964798 80.942886,167.892883 80.404518,168.017090 
	C80.235184,168.327805 80.065857,168.638535 79.967407,168.967545 
	C79.967407,168.967545 79.948364,168.896851 79.416351,169.031204 
	C79.244545,169.338913 79.072746,169.646622 78.970764,169.971008 
	C78.970764,169.971008 78.953362,169.901367 78.418983,170.030975 
	C78.246651,170.339096 78.074318,170.647217 77.980286,170.979279 
	C77.980286,170.979279 77.930893,170.913971 77.298340,171.125275 
	C75.578667,173.100250 73.859001,175.075241 71.903893,177.515549 
	C71.451683,178.037201 70.999474,178.558838 70.219765,179.204803 
	C70.219765,179.204803 70.082565,179.527115 69.527794,179.843445 
	C68.076752,183.229233 66.625710,186.615005 65.037308,190.889328 
	C65.292015,193.773880 65.155159,196.761002 65.878479,199.522812 
	C67.688660,206.434540 73.044357,210.723175 78.268196,215.643570 
	C78.841484,216.123734 79.414772,216.603882 79.980370,217.009781 
	C79.980370,217.009781 79.906311,217.019287 80.037209,217.560455 
	C80.347488,217.738190 80.657761,217.915924 80.976173,218.024460 
	C80.976173,218.024460 80.907341,218.035355 81.031616,218.575897 
	C81.341995,218.748993 81.652374,218.922104 81.974037,219.026093 
z"/>
<path fill="#52AD83" opacity="1.000000" stroke="none" 
	d="
M77.923561,149.139191 
	C77.591209,149.047836 77.323799,148.862701 77.052887,147.925980 
	C77.531044,141.958954 73.082726,140.494278 69.895905,138.058640 
	C69.895905,138.058640 69.978317,138.001587 69.978203,137.609024 
	C70.332024,132.934143 70.332962,128.582779 71.152840,124.391602 
	C71.795753,121.105042 72.796623,117.481438 77.156418,116.880997 
	C77.156418,116.880997 77.045921,117.005791 77.061752,117.303780 
	C77.839188,119.363632 78.600792,121.125504 79.313438,122.774094 
	C78.315704,123.924507 77.351471,125.036308 76.387238,126.148102 
	C77.465660,126.632759 78.786682,127.781700 79.582039,127.491241 
	C83.840134,125.936203 85.142258,128.018158 85.030785,131.751068 
	C88.217270,131.458725 91.210701,131.775635 93.733757,130.833221 
	C99.528091,128.668930 106.850105,129.077148 110.303299,121.930916 
	C111.069717,121.239464 111.534294,120.619263 111.999550,119.584808 
	C112.334991,116.782173 112.669762,114.393799 113.396667,111.998055 
	C119.095116,110.112846 119.463112,104.911064 113.601143,98.214340 
	C116.507195,98.579285 118.393211,98.409157 119.908730,99.078232 
	C125.868073,101.709190 125.879135,101.771049 126.300476,95.108917 
	C127.724342,96.169731 128.860840,97.086525 129.997742,98.438156 
	C130.328934,102.647469 128.516724,107.595779 135.001266,108.332306 
	C135.006104,109.104897 135.007843,109.546387 135.076202,110.290916 
	C135.757706,111.063850 136.372574,111.533730 136.992081,112.432495 
	C137.061905,117.045204 138.686325,122.226791 136.805817,125.165543 
	C134.339981,129.018997 134.072113,132.128296 134.771393,136.250946 
	C132.367737,138.376175 129.762909,139.936401 128.126312,142.197449 
	C125.378891,145.993179 123.247719,150.234940 120.654152,154.633484 
	C116.206123,151.960526 111.392860,149.021149 107.246101,155.406708 
	C107.034042,155.733246 106.346741,155.869400 105.872017,155.889557 
	C97.511665,156.244461 89.242828,156.397690 82.441795,150.109589 
	C81.468582,149.209778 79.455429,149.434769 77.923561,149.139191 
M132.511627,112.383240 
	C132.150543,113.249817 131.789444,114.116402 131.428360,114.982979 
	C131.985519,115.139885 132.542664,115.296791 133.099823,115.453697 
	C133.114029,114.490562 133.128235,113.527435 132.511627,112.383240 
z"/>
<path fill="#58AD99" opacity="1.000000" stroke="none" 
	d="
M218.843796,188.005081 
	C219.053543,188.312668 219.263275,188.620270 219.750397,189.388809 
	C221.936340,192.937836 220.943741,195.641800 219.076645,198.359543 
	C217.796494,200.222931 216.921890,202.367371 215.618988,204.211655 
	C214.926651,205.191666 213.697174,206.423050 212.730576,206.405670 
	C211.711395,206.387344 210.228638,205.195633 209.857559,204.183319 
	C209.530807,203.291840 210.323029,201.869965 210.872635,200.813141 
	C211.368408,199.859848 212.205078,199.083862 213.446030,197.539398 
	C210.381378,198.061554 208.502121,198.337875 206.641724,198.708817 
	C203.730698,199.289276 200.816956,199.871140 197.936722,200.583282 
	C196.849945,200.851990 195.894180,201.644394 194.808136,201.923141 
	C190.811752,202.948837 187.528000,207.698166 187.758484,212.214020 
	C185.371658,218.923599 183.216522,225.366287 180.885941,232.333466 
	C178.265808,232.493393 177.274368,231.027115 178.571243,227.137192 
	C179.163025,225.362167 179.307663,223.438080 179.655090,221.581589 
	C179.168961,221.498901 178.682831,221.416199 178.196686,221.333511 
	C177.029373,222.883026 175.862076,224.432526 174.341690,226.450729 
	C173.274780,224.319778 172.638443,223.048798 171.538162,220.851196 
	C171.085037,224.144150 170.789032,226.295273 170.455704,228.717667 
	C167.388123,225.784515 165.183212,222.765198 162.221344,221.063065 
	C158.044022,218.662415 157.817245,215.284592 158.170242,211.351166 
	C158.450363,208.229935 158.749725,205.110413 159.362137,201.898041 
	C160.289856,200.207275 160.769882,198.544891 161.536621,197.027344 
	C162.348434,195.420547 163.133652,193.150894 164.482193,192.646866 
	C165.838364,192.139969 168.301010,192.965134 169.533478,194.051865 
	C173.735458,197.756973 179.013885,197.061295 181.782104,192.113708 
	C182.475891,190.873718 183.280807,188.719238 184.106003,188.684616 
	C190.465027,188.417603 191.661224,183.181488 194.442810,179.005600 
	C198.639420,179.318573 202.391373,179.633560 206.143341,179.948547 
	C207.560928,180.592270 208.978516,181.235992 210.860931,182.191132 
	C211.553680,182.707352 211.813370,182.857071 212.104843,182.951660 
	C212.104843,182.951660 212.026108,182.970337 212.025391,183.323212 
	C211.172607,185.465897 210.320526,187.255707 208.860809,190.321930 
	C212.840576,189.398300 215.842178,188.701691 218.843796,188.005081 
z"/>
<path fill="#59A69B" opacity="1.000000" stroke="none" 
	d="
M135.996613,250.057739 
	C128.567108,255.193420 121.151550,253.692902 113.240143,249.720917 
	C112.507690,249.208755 112.234810,249.063385 111.921074,248.994720 
	C111.921074,248.994720 112.010658,248.978668 111.843285,248.796921 
	C111.353378,248.406784 111.030853,248.198395 110.708321,247.990005 
	C110.190010,247.601624 109.671692,247.213257 109.041962,246.252472 
	C108.586830,245.463913 108.243111,245.247757 107.899399,245.031616 
	C107.899399,245.031616 107.972321,245.028030 108.040329,244.696289 
	C107.041580,243.596252 105.974831,242.827972 104.908081,242.059692 
	C104.908081,242.059692 104.975243,242.026169 104.963715,241.754456 
	C104.602798,241.335449 104.253418,241.188156 103.904030,241.040863 
	C103.904030,241.040863 103.973099,241.027008 103.964157,240.753662 
	C103.604996,240.333588 103.254784,240.186844 102.904579,240.040100 
	C102.904579,240.040085 102.973526,240.026596 102.962570,239.754227 
	C102.602577,239.334427 102.253548,239.186996 101.904518,239.039566 
	C101.904518,239.039566 101.973526,239.026550 101.962082,238.754410 
	C101.601913,238.334671 101.253189,238.187057 100.904465,238.039444 
	C100.904465,238.039444 100.973495,238.026581 100.961578,237.754669 
	C100.601273,237.334946 100.252869,237.187103 99.904472,237.039276 
	C99.904472,237.039276 99.973511,237.026596 99.960266,236.755249 
	C99.599396,236.335693 99.251762,236.187469 98.904129,236.039246 
	C98.904129,236.039246 98.973251,236.026794 98.961327,235.754623 
	C98.600967,235.334976 98.252525,235.187500 97.904083,235.040039 
	C97.904083,235.040039 97.973183,235.026917 97.963623,234.753464 
	C97.604416,234.333344 97.254776,234.186691 96.905128,234.040039 
	C96.905128,234.040039 96.973961,234.026215 96.962479,233.753708 
	C96.602043,233.334305 96.253082,233.187408 95.904129,233.040527 
	C95.904121,233.040527 95.973221,233.026749 95.967209,232.750732 
	C95.608398,232.331116 95.255608,232.187500 94.902824,232.043884 
	C94.902824,232.043884 94.972092,232.028061 94.966965,231.752228 
	C94.609360,231.331635 94.256866,231.186874 93.904381,231.042130 
	C93.904381,231.042130 93.973282,231.026947 93.963821,230.754028 
	C93.604828,230.333725 93.255295,230.186356 92.905762,230.039001 
	C92.905769,230.038986 92.974518,230.025558 92.963669,229.753204 
	C92.604385,229.333328 92.255936,229.185806 91.907486,229.038300 
	C91.907494,229.038284 91.936760,229.090576 92.123291,228.836365 
	C92.394798,228.378586 92.479774,228.175003 92.841087,227.840652 
	C95.127937,226.789352 97.138435,225.868835 99.368660,224.965454 
	C99.588379,224.982590 100.012474,225.102753 100.302170,225.319641 
	C105.394669,226.726074 108.006729,224.595184 108.991272,219.591736 
	C108.327148,216.460297 107.661774,213.732727 107.396088,211.003571 
	C108.861580,211.001389 109.927391,211.000839 111.300537,211.000931 
	C112.017357,210.999283 112.426842,210.996994 112.836334,210.994720 
	C118.654129,216.574890 124.582764,222.045883 130.237320,227.786850 
	C132.631058,230.217194 134.325027,230.553940 136.670410,227.849106 
	C140.846359,223.033142 145.233322,218.400162 149.532028,213.690643 
	C150.046295,213.721634 150.560562,213.752640 151.074844,213.783630 
	C151.736008,218.183670 152.397156,222.583694 152.873108,227.660889 
	C152.482422,230.588608 152.276962,232.839188 152.071503,235.089767 
	C152.071487,235.089767 152.021622,235.021866 151.745605,235.024109 
	C151.331284,235.385757 151.192993,235.745163 151.054688,236.104568 
	C151.054703,236.104568 151.033463,236.033035 150.750458,236.025742 
	C150.330688,236.381027 150.193909,236.743607 150.057129,237.106201 
	C150.057144,237.106201 150.034332,237.034393 149.753983,237.028687 
	C149.332550,237.382568 149.191452,237.742157 149.050369,238.101746 
	C149.050369,238.101746 149.031662,238.031357 148.754730,238.032013 
	C148.333145,238.387482 148.188522,238.742294 148.043884,239.097092 
	C148.043884,239.097092 148.027908,239.027832 147.751816,239.032791 
	C147.331726,239.390778 147.187714,239.743820 147.043732,240.096863 
	C147.043732,240.096863 147.027802,240.027679 146.752014,240.032990 
	C146.331543,240.390823 146.186874,240.743362 146.042206,241.095901 
	C146.042206,241.095901 146.031067,241.024780 145.712219,240.997467 
	C143.595352,243.058243 141.797333,245.146347 139.999313,247.234451 
	C139.570465,247.784607 139.141617,248.334778 138.131378,248.964951 
	C137.032196,249.382538 136.514404,249.720139 135.996613,250.057739 
z"/>
<path fill="#54A891" opacity="1.000000" stroke="none" 
	d="
M110.993210,211.000275 
	C109.927391,211.000839 108.861580,211.001389 107.064774,211.050018 
	C105.513992,211.443420 104.694206,211.788742 103.938110,212.088715 
	C104.001793,212.043365 103.907150,212.168060 103.880669,211.882782 
	C103.210663,211.447327 102.567146,211.297119 101.617264,211.105377 
	C100.900330,211.089615 100.489777,211.115387 99.861481,210.905014 
	C98.430367,210.782166 97.216972,210.895477 95.698273,211.017365 
	C94.924606,211.685532 94.456261,212.345139 93.977753,213.329468 
	C93.944672,214.086288 93.921753,214.518341 93.686279,215.228882 
	C91.335403,217.839508 89.197075,220.171677 86.747910,222.604446 
	C86.264603,222.838028 86.092125,222.971039 85.919640,223.104065 
	C85.919640,223.104065 85.927162,223.024826 85.948845,222.748596 
	C85.614975,222.328506 85.259415,222.184631 84.903854,222.040771 
	C84.903854,222.040771 84.972939,222.027344 84.967255,221.752151 
	C84.609528,221.330475 84.257484,221.184006 83.905434,221.037521 
	C83.905434,221.037521 83.974396,221.025742 83.967102,220.750900 
	C83.608246,220.329971 83.256691,220.183884 82.905128,220.037811 
	C82.905128,220.037811 82.974136,220.026016 82.966995,219.751129 
	C82.608238,219.330124 82.256630,219.183990 81.905022,219.037872 
	C81.905022,219.037872 81.974037,219.026093 81.967102,218.751511 
	C81.609222,218.329742 81.258286,218.182541 80.907341,218.035355 
	C80.907341,218.035355 80.976173,218.024460 80.958229,217.756317 
	C80.595627,217.331879 80.250969,217.175583 79.906311,217.019287 
	C79.906311,217.019287 79.980370,217.009781 79.938843,216.756744 
	C79.335632,216.028397 78.773949,215.553101 78.212265,215.077805 
	C73.044357,210.723175 67.688660,206.434540 65.878479,199.522812 
	C65.155159,196.761002 65.292015,193.773880 65.424500,190.347534 
	C68.930489,187.083893 71.317268,184.057892 70.082565,179.527115 
	C70.082565,179.527115 70.219765,179.204803 70.734421,179.352844 
	C74.238724,180.300110 74.858665,178.455032 75.164017,175.880341 
	C75.572411,175.430862 75.848381,175.212219 76.299667,174.862808 
	C76.693817,174.533478 76.871346,174.303055 77.003639,174.023010 
	C76.999702,174.005188 77.036972,174.017776 77.377335,174.080078 
	C80.557999,175.879715 83.551132,177.422836 86.149551,179.467545 
	C86.976067,180.117920 87.345879,182.352798 86.892723,183.427475 
	C85.762444,186.107986 86.146881,187.518906 89.141388,187.882202 
	C89.141388,187.882202 89.085587,187.931183 89.202957,188.122253 
	C89.593681,188.524673 89.867050,188.736008 90.140411,188.947357 
	C90.140411,188.947357 90.048386,188.956406 90.184814,189.133896 
	C90.596207,189.523788 90.871162,189.736191 91.146126,189.948593 
	C91.146126,189.948593 91.045052,189.958481 91.184387,190.133209 
	C91.603043,190.520081 91.882347,190.732224 92.161652,190.944366 
	C95.227959,193.870972 98.294266,196.797562 101.814316,200.100266 
	C102.569244,200.623840 102.870422,200.771317 103.171600,200.918793 
	C103.171608,200.918777 103.077766,200.958527 103.187714,201.143402 
	C103.580742,201.535294 103.863831,201.742340 104.146927,201.949371 
	C104.146927,201.949371 104.050880,201.962082 104.174072,202.146011 
	C104.579521,202.537109 104.861786,202.744278 105.144058,202.951447 
	C105.144058,202.951447 105.052574,202.970886 105.173828,203.152405 
	C105.572205,203.541901 105.849319,203.749863 106.126434,203.957825 
	C106.126434,203.957825 106.074341,203.882584 106.075012,204.236725 
	C107.105179,205.380905 108.134674,206.170944 109.164169,206.960968 
	C109.727875,207.414200 110.291588,207.867432 110.930313,208.940002 
	C111.001282,210.039673 110.997246,210.519974 110.993210,211.000275 
z"/>
<path fill="#5DAE95" opacity="1.000000" stroke="none" 
	d="
M200.016861,171.863159 
	C196.892014,171.373352 193.767181,170.883545 189.556503,170.223526 
	C191.450989,167.816498 192.859253,166.027252 194.892761,164.030151 
	C195.983154,163.158936 196.448318,162.495560 196.913498,161.832199 
	C197.702362,160.939911 198.491241,160.047638 199.882568,158.983429 
	C200.964447,158.151108 201.443863,157.490707 201.923279,156.830322 
	C202.711136,155.943451 203.498978,155.056580 204.788483,153.918884 
	C205.506912,153.396622 205.723694,153.125183 205.940475,152.853729 
	C206.921402,151.759491 207.902344,150.665237 209.318390,149.191345 
	C209.462677,147.889709 209.171829,146.967728 208.880981,146.045746 
	C207.321030,144.602661 205.761047,143.159576 204.228073,141.068893 
	C204.834854,135.614304 205.414612,130.807297 206.139435,125.680420 
	C205.867203,122.791542 205.449890,120.222549 204.992661,117.407684 
	C208.668152,116.886375 212.675171,115.553696 214.388474,120.986542 
	C214.439331,121.147850 215.446121,121.007706 216.256561,121.007774 
	C216.505905,121.007439 217.004547,121.001976 217.288300,120.984665 
	C217.759186,120.937378 217.946320,120.907410 218.133438,120.877441 
	C218.133438,120.877441 218.017609,120.898178 218.041931,121.252594 
	C219.435303,122.720657 220.804367,123.834297 222.173431,124.947929 
	C222.733643,125.402290 223.293839,125.856651 223.948944,126.951454 
	C224.180527,128.230560 224.149170,128.976639 224.478607,129.492126 
	C231.845596,141.019745 230.520309,149.264328 220.878937,157.772598 
	C219.456100,159.028214 218.971985,161.347504 218.053558,163.174652 
	C217.594498,163.733978 217.135452,164.293304 216.041046,164.947021 
	C210.405487,167.607193 206.355286,172.316132 200.016861,171.863159 
z"/>
<path fill="#5AA59D" opacity="1.000000" stroke="none" 
	d="
M159.040543,201.990143 
	C158.749725,205.110413 158.450363,208.229935 158.170242,211.351166 
	C157.817245,215.284592 158.044022,218.662415 162.221344,221.063065 
	C165.183212,222.765198 167.388123,225.784515 170.455704,228.717667 
	C170.789032,226.295273 171.085037,224.144150 171.538162,220.851196 
	C172.638443,223.048798 173.274780,224.319778 174.341690,226.450729 
	C175.862076,224.432526 177.029373,222.883026 178.196686,221.333511 
	C178.682831,221.416199 179.168961,221.498901 179.655090,221.581589 
	C179.307663,223.438080 179.163025,225.362167 178.571243,227.137192 
	C177.274368,231.027115 178.265808,232.493393 180.885941,232.333466 
	C183.216522,225.366287 185.371658,218.923599 187.977997,212.232544 
	C188.429184,211.984192 188.868958,212.003738 188.868958,212.003738 
	C187.671631,216.172119 186.325928,220.306488 185.358795,224.527618 
	C185.027969,225.971512 185.070038,228.145935 185.927444,229.109131 
	C190.469177,234.211273 195.432755,238.936478 200.014359,244.005402 
	C201.657715,245.823563 202.642273,248.237183 203.927505,250.379028 
	C201.565582,251.249756 199.227112,252.789627 196.837585,252.873398 
	C187.354752,253.205856 178.499420,251.463394 170.573166,245.421631 
	C162.317902,239.129105 158.298676,230.797028 157.075043,220.965469 
	C156.458618,216.012756 157.189941,210.906174 156.868210,205.897690 
	C156.674530,202.882278 155.627731,199.921692 155.155823,196.396042 
	C156.578400,197.900467 157.809464,199.945297 159.040543,201.990143 
z"/>
<path fill="#57AC89" opacity="1.000000" stroke="none" 
	d="
M162.091293,105.249863 
	C161.640121,105.793686 161.188965,106.337517 160.124084,106.963303 
	C158.692642,107.733826 157.874939,108.422386 157.057220,109.110947 
	C157.057220,109.110947 157.024857,109.032280 156.849289,109.167862 
	C156.455811,109.570831 156.237885,109.838219 156.019958,110.105606 
	C156.019958,110.105606 156.032867,110.026031 155.701202,110.008911 
	C154.758377,109.104301 153.465805,108.036415 153.645340,107.358238 
	C154.923019,102.531883 156.526672,97.792763 157.973450,93.009811 
	C158.685959,90.654388 159.285339,88.264740 159.935913,85.890572 
	C159.935913,85.890572 159.983124,85.978111 160.351013,85.969246 
	C164.204803,85.415565 168.272995,83.506104 171.025375,84.680489 
	C174.272995,86.066177 177.069580,86.185173 180.522156,86.061638 
	C182.573013,87.123466 184.328766,88.030334 186.084503,88.937195 
	C186.084503,88.937195 186.012985,88.989685 186.026337,89.257149 
	C186.391052,89.668716 186.742416,89.812820 187.093781,89.956924 
	C187.093781,89.956932 187.016953,89.983040 187.028336,90.253845 
	C187.391052,90.668755 187.742386,90.812851 188.093719,90.956947 
	C188.093719,90.956947 188.016907,90.983070 188.028366,91.253784 
	C188.391052,91.668755 188.742279,91.813011 189.093506,91.957268 
	C189.093506,91.957268 189.016891,91.983109 189.029358,92.252914 
	C189.392212,92.667961 189.742630,92.813202 190.093033,92.958450 
	C190.093033,92.958450 190.016739,92.983261 190.030701,93.251984 
	C190.393860,93.667183 190.743057,93.813667 191.092255,93.960144 
	C191.092255,93.960144 191.016464,93.983543 191.032532,94.251373 
	C191.396439,94.666397 191.744263,94.813591 192.092102,94.960785 
	C192.092102,94.960785 192.016373,94.983627 192.032547,95.251244 
	C192.395981,95.667030 192.743240,95.815201 193.090500,95.963371 
	C193.090500,95.963371 193.015930,95.983925 193.042145,96.245216 
	C193.408707,96.660820 193.749054,96.815132 194.089386,96.969444 
	C194.089386,96.969444 194.015213,96.984734 194.044388,97.244431 
	C194.412033,97.659882 194.750504,97.815628 195.088974,97.971375 
	C195.088974,97.971375 195.014923,97.984962 195.048843,98.242218 
	C195.418152,98.657204 195.753555,98.814941 196.088943,98.972679 
	C196.088943,98.972679 196.013580,98.944885 195.904083,99.183563 
	C195.732803,99.606934 195.671005,99.791611 195.392548,100.190201 
	C195.080734,101.122368 194.764832,102.411530 194.923660,102.472939 
	C197.167816,103.340691 198.976196,104.351517 197.173050,107.091278 
	C195.320770,109.905754 193.593552,107.718597 191.738586,106.940186 
	C189.304764,105.918877 186.521042,104.494606 186.047363,109.300888 
	C186.454208,110.048721 186.807724,110.504112 187.378662,111.025146 
	C187.873352,111.268173 188.021988,111.521141 188.042908,112.224930 
	C189.319397,114.877281 190.729401,117.093124 191.807968,119.460014 
	C192.274765,120.484398 192.057739,121.820396 192.151321,123.014847 
	C190.836288,122.897545 189.131882,123.263786 188.276825,122.575256 
	C185.321777,120.195778 182.813171,117.261078 179.853592,114.888252 
	C175.973694,111.777527 171.826874,108.999710 167.794861,106.078705 
	C167.476791,106.047531 167.230896,105.897820 166.965515,105.056732 
	C165.954758,103.748573 165.035690,103.013237 164.116623,102.277901 
	C163.441513,103.268555 162.766403,104.259209 162.091293,105.249863 
z"/>
<path fill="#55AC8A" opacity="1.000000" stroke="none" 
	d="
M78.069244,149.449738 
	C79.455429,149.434769 81.468582,149.209778 82.441795,150.109589 
	C89.242828,156.397690 97.511665,156.244461 105.872017,155.889557 
	C106.346741,155.869400 107.034042,155.733246 107.246101,155.406708 
	C111.392860,149.021149 116.206123,151.960526 120.654152,154.633484 
	C123.247719,150.234940 125.378891,145.993179 128.126312,142.197449 
	C129.762909,139.936401 132.367737,138.376175 135.060165,136.413696 
	C137.386780,138.221420 139.190521,140.116333 140.995422,142.385864 
	C140.997849,143.509720 140.999100,144.258942 140.649353,145.028564 
	C139.662949,145.578354 139.027557,146.107773 138.392181,146.637192 
	C139.594589,147.089828 140.796997,147.542465 142.251007,147.997009 
	C142.670334,148.000061 142.838058,148.001221 143.005783,148.389130 
	C143.670654,150.182251 144.335526,151.588608 145.001129,153.428253 
	C145.329147,159.598755 145.961716,165.339233 145.900558,171.072327 
	C145.835281,177.189545 143.971298,178.733307 137.804031,179.091919 
	C136.920181,178.307816 136.036316,177.523712 135.045227,176.092438 
	C133.721664,171.340637 131.456192,168.396759 126.804108,168.093338 
	C126.482498,168.050598 126.232780,167.893555 125.939026,167.080353 
	C125.173256,166.057190 124.523392,165.575851 123.873528,165.094513 
	C123.873528,165.094513 123.941864,165.061890 123.810623,164.878571 
	C123.401672,164.491043 123.123955,164.286819 122.846237,164.082596 
	C121.951820,163.288177 121.057404,162.493759 120.042236,161.210083 
	C119.590462,160.523636 119.259430,160.326477 118.928398,160.129303 
	C115.511108,159.323196 112.046425,157.675720 108.685188,157.865036 
	C97.546410,158.492340 86.862061,158.183228 78.069244,149.449738 
z"/>
<path fill="#58AD95" opacity="1.000000" stroke="none" 
	d="
M159.362137,201.898041 
	C157.809464,199.945297 156.578400,197.900467 155.128372,196.007965 
	C154.575851,196.079025 154.305786,195.901260 154.070251,195.057327 
	C155.312714,190.574478 153.486435,190.786194 150.843094,192.085892 
	C150.513687,192.039551 150.256912,191.877869 149.997650,190.995773 
	C148.557236,189.293930 147.191971,188.197159 145.826691,187.100388 
	C144.933319,186.307663 144.039932,185.514954 143.203751,184.129303 
	C146.470306,182.104279 149.578186,180.341629 152.912949,179.318054 
	C157.840500,177.805618 162.818756,172.086884 163.347839,167.063217 
	C168.756058,168.705719 165.841705,172.142349 165.080597,175.600449 
	C167.312195,175.750656 169.155487,175.874725 170.999390,175.999390 
	C171.000000,176.000000 171.001221,176.001221 171.005676,176.378693 
	C171.629425,177.732574 172.245850,179.545898 172.868515,179.548035 
	C176.596054,179.560913 180.325058,179.156845 184.053558,178.892563 
	C184.468414,178.916687 184.883286,178.940826 185.871796,179.157562 
	C188.963028,179.235962 191.480606,179.121796 193.998169,179.007614 
	C191.661224,183.181488 190.465027,188.417603 184.106003,188.684616 
	C183.280807,188.719238 182.475891,190.873718 181.782104,192.113708 
	C179.013885,197.061295 173.735458,197.756973 169.533478,194.051865 
	C168.301010,192.965134 165.838364,192.139969 164.482193,192.646866 
	C163.133652,193.150894 162.348434,195.420547 161.536621,197.027344 
	C160.769882,198.544891 160.289856,200.207275 159.362137,201.898041 
z"/>
<path fill="#5BA99A" opacity="1.000000" stroke="none" 
	d="
M189.054657,211.681885 
	C188.868958,212.003738 188.429184,211.984192 188.209686,211.965668 
	C187.528000,207.698166 190.811752,202.948837 194.808136,201.923141 
	C195.894180,201.644394 196.849945,200.851990 197.936722,200.583282 
	C200.816956,199.871140 203.730698,199.289276 206.641724,198.708817 
	C208.502121,198.337875 210.381378,198.061554 213.446030,197.539398 
	C212.205078,199.083862 211.368408,199.859848 210.872635,200.813141 
	C210.323029,201.869965 209.530807,203.291840 209.857559,204.183319 
	C210.228638,205.195633 211.711395,206.387344 212.730576,206.405670 
	C213.697174,206.423050 214.926651,205.191666 215.618988,204.211655 
	C216.921890,202.367371 217.796494,200.222931 219.076645,198.359543 
	C220.943741,195.641800 221.936340,192.937836 220.010590,189.503021 
	C226.557678,194.509171 230.036606,201.573273 230.941299,209.844376 
	C231.350571,213.586105 230.986938,217.412338 230.616516,221.797958 
	C229.851776,222.998947 229.444458,223.602234 229.037140,224.205505 
	C229.037140,224.205505 229.042999,224.059830 228.676041,224.127426 
	C226.843643,224.145706 225.378220,224.096390 223.912781,224.047073 
	C223.912781,224.047073 223.979492,224.024536 223.956970,223.757690 
	C223.591507,223.339249 223.248566,223.187668 222.905624,223.036072 
	C222.905624,223.036072 222.974686,223.025314 222.958603,222.755615 
	C222.596558,222.336853 222.250595,222.187790 221.904648,222.038712 
	C221.904648,222.038712 221.973663,222.026413 221.958618,221.756226 
	C221.597122,221.337128 221.250656,221.188217 220.904190,221.039307 
	C220.904190,221.039307 220.973297,221.026733 220.959656,220.755676 
	C220.598587,220.336487 220.251190,220.188370 219.903778,220.040237 
	C219.903778,220.040237 219.972900,220.027161 219.960159,219.755875 
	C219.599930,219.336121 219.252426,219.187653 218.904938,219.039169 
	C218.904938,219.039169 218.973846,219.026337 218.956696,218.758087 
	C218.595490,218.338409 218.251434,218.186966 217.907394,218.035522 
	C217.907394,218.035522 217.976028,218.024063 217.959976,217.753815 
	C217.598053,217.335480 217.252197,217.187408 216.906326,217.039322 
	C216.906326,217.039322 216.974930,217.024811 216.965973,216.750061 
	C216.605255,216.331863 216.253494,216.188416 215.901718,216.044968 
	C215.901718,216.044968 215.971161,216.028854 215.964722,215.753906 
	C215.606445,215.333740 215.254608,215.188522 214.902786,215.043304 
	C214.902786,215.043304 214.971878,215.028381 214.956421,214.759567 
	C214.596481,214.338806 214.252029,214.186859 213.907562,214.034897 
	C213.907562,214.034897 213.978149,214.019073 214.028732,213.713181 
	C213.048752,212.278946 212.018173,211.150604 210.987610,210.022263 
	C204.812561,203.038544 198.563278,208.696365 192.360748,209.961075 
	C191.270844,210.183289 190.278015,210.881592 189.054657,211.681885 
z"/>
<path fill="#5AAC84" opacity="1.000000" stroke="none" 
	d="
M126.013107,94.964897 
	C125.879135,101.771049 125.868073,101.709190 119.908730,99.078232 
	C118.393211,98.409157 116.507195,98.579285 113.601143,98.214340 
	C119.463112,104.911064 119.095116,110.112846 113.395035,111.616302 
	C112.380638,109.827599 111.760017,108.413284 111.139397,106.998970 
	C110.155655,105.915085 109.171913,104.831207 108.016144,103.131058 
	C107.186012,102.033752 106.527924,101.552719 105.869835,101.071686 
	C105.869835,101.071686 105.961266,101.043213 105.821243,100.867523 
	C105.395630,100.482094 105.110046,100.272354 104.824463,100.062614 
	C101.288208,96.642159 97.751945,93.221710 94.083298,89.030914 
	C93.663445,87.358093 93.375977,86.455605 93.088509,85.553123 
	C93.088509,85.553123 93.212181,85.211250 93.773895,85.356567 
	C99.994003,84.028488 105.598663,83.421616 111.319572,85.499107 
	C113.096779,86.144485 115.227890,85.815308 117.196976,85.932297 
	C117.196976,85.932304 117.601913,85.971992 117.814514,86.413635 
	C118.594116,90.806763 121.607872,89.870430 124.132370,89.911453 
	C124.132370,89.911453 124.057678,89.955727 124.182663,90.136734 
	C124.577591,90.538200 124.847534,90.758659 125.117477,90.979126 
	C125.117477,90.979126 125.041016,90.954514 125.083405,91.267944 
	C125.421562,92.709213 125.717339,93.837059 126.013107,94.964897 
z"/>
<path fill="#58AE90" opacity="1.000000" stroke="none" 
	d="
M163.000610,167.001221 
	C162.818756,172.086884 157.840500,177.805618 152.912949,179.318054 
	C149.578186,180.341629 146.470306,182.104279 143.077103,183.855774 
	C141.299927,182.676605 139.706573,181.178024 137.958618,179.385681 
	C143.971298,178.733307 145.835281,177.189545 145.900558,171.072327 
	C145.961716,165.339233 145.329147,159.598755 145.124756,153.143127 
	C144.500366,150.950623 143.753082,149.476486 143.005783,148.002365 
	C142.838058,148.001221 142.670334,148.000061 142.207153,147.683167 
	C141.607941,146.580994 141.304153,145.794586 141.000366,145.008179 
	C140.999100,144.258942 140.997849,143.509720 141.354095,142.379227 
	C142.189529,141.982849 142.667465,141.967728 143.145401,141.952606 
	C144.693329,143.395203 146.241241,144.837799 147.918106,146.947617 
	C148.963364,151.338226 150.987427,153.816391 155.128677,153.914612 
	C155.128677,153.914612 155.047836,153.973755 155.057159,154.296371 
	C156.093185,156.778366 157.119873,158.937744 157.863007,160.500732 
	C156.840256,161.750732 155.921051,162.874191 155.089874,164.321228 
	C156.118423,165.096344 157.058899,165.547867 158.360153,166.058380 
	C160.147476,166.411987 161.574051,166.706604 163.000610,167.001221 
z"/>
<path fill="#5CAB8D" opacity="1.000000" stroke="none" 
	d="
M89.109421,187.491455 
	C86.146881,187.518906 85.762444,186.107986 86.892723,183.427475 
	C87.345879,182.352798 86.976067,180.117920 86.149551,179.467545 
	C83.551132,177.422836 80.557999,175.879715 77.511765,173.769516 
	C77.514183,172.569092 77.722542,171.741531 77.930893,170.913971 
	C77.930893,170.913971 77.980286,170.979279 78.255493,170.976410 
	C78.671593,170.616165 78.812477,170.258759 78.953362,169.901367 
	C78.953362,169.901367 78.970764,169.971008 79.250931,169.971893 
	C79.670197,169.614151 79.809280,169.255493 79.948364,168.896851 
	C79.948364,168.896851 79.967407,168.967545 80.250275,168.973572 
	C80.669731,168.617355 80.806313,168.255127 80.942886,167.892883 
	C80.942886,167.892883 80.964622,167.964798 81.246277,167.972672 
	C81.668579,167.620010 81.809212,167.259460 81.949844,166.898926 
	C81.949852,166.898926 81.968765,166.969208 82.246796,166.968857 
	C82.668167,166.613159 82.811493,166.257812 82.954819,165.902466 
	C82.954819,165.902466 82.971947,165.971909 83.252594,165.972824 
	C83.671364,165.614670 83.809494,165.255615 83.947624,164.896545 
	C83.947624,164.896545 83.968796,164.968872 84.226067,164.989059 
	C84.653854,164.687988 84.824364,164.366714 84.994881,164.045456 
	C87.317352,163.664200 89.659386,162.875854 91.958244,162.986282 
	C96.775223,163.217636 101.569473,163.922150 106.602821,164.456772 
	C101.509079,170.053101 96.367157,175.464462 91.549553,181.150589 
	C90.226997,182.711594 89.874886,185.094803 89.109421,187.491455 
z"/>
<path fill="#64B38F" opacity="1.000000" stroke="none" 
	d="
M167.956253,106.376755 
	C171.826874,108.999710 175.973694,111.777527 179.853592,114.888252 
	C182.813171,117.261078 185.321777,120.195778 188.276825,122.575256 
	C189.131882,123.263786 190.836288,122.897545 192.151321,123.014847 
	C192.057739,121.820396 192.274765,120.484398 191.807968,119.460014 
	C190.729401,117.093124 189.319397,114.877281 188.352081,112.380928 
	C193.720367,116.748177 198.780365,121.334679 204.199142,125.940903 
	C205.036743,125.973846 205.515564,125.987076 205.994385,126.000305 
	C205.414612,130.807297 204.834854,135.614304 204.097092,140.776031 
	C191.998627,129.645432 180.058136,118.160118 167.956253,106.376755 
z"/>
<path fill="#60B28A" opacity="1.000000" stroke="none" 
	d="
M159.588928,85.937904 
	C159.285339,88.264740 158.685959,90.654388 157.973450,93.009811 
	C156.526672,97.792763 154.923019,102.531883 153.645340,107.358238 
	C153.465805,108.036415 154.758377,109.104301 155.737061,110.027359 
	C153.717514,113.278801 151.403412,116.557503 148.797058,119.584557 
	C148.600555,119.812767 145.479019,118.508118 145.159790,117.471718 
	C143.884659,113.331482 143.107513,109.028923 142.319122,104.754517 
	C142.140259,103.784760 142.289383,102.318924 142.907181,101.706123 
	C148.271835,96.384926 153.777908,91.206284 159.588928,85.937904 
z"/>
<path fill="#67B193" opacity="1.000000" stroke="none" 
	d="
M206.139435,125.680420 
	C205.515564,125.987076 205.036743,125.973846 204.358688,125.624107 
	C203.954391,123.888062 204.250977,122.026718 203.459518,121.167007 
	C199.524811,116.892960 195.405579,112.769218 191.087021,108.886543 
	C190.330307,108.206192 188.313019,108.927910 186.656952,109.003578 
	C186.435974,109.005066 185.994019,109.008446 185.994019,109.008446 
	C186.521042,104.494606 189.304764,105.918877 191.738586,106.940186 
	C193.593552,107.718597 195.320770,109.905754 197.173050,107.091278 
	C198.976196,104.351517 197.167816,103.340691 194.923660,102.472939 
	C194.764832,102.411530 195.080734,101.122368 195.663574,100.369385 
	C196.733032,100.572456 197.314774,100.810242 197.896530,101.048027 
	C203.527420,106.446220 209.158310,111.844414 214.947372,117.879181 
	C215.406097,119.346542 215.706665,120.177330 216.007217,121.008118 
	C215.446121,121.007706 214.439331,121.147850 214.388474,120.986542 
	C212.675171,115.553696 208.668152,116.886375 204.992661,117.407684 
	C205.449890,120.222549 205.867203,122.791542 206.139435,125.680420 
z"/>
<path fill="#5EAD86" opacity="1.000000" stroke="none" 
	d="
M77.138245,116.504974 
	C72.796623,117.481438 71.795753,121.105042 71.152840,124.391602 
	C70.332962,128.582779 70.332024,132.934143 69.957855,137.654785 
	C68.291565,133.884064 66.296310,129.768890 65.129745,125.430878 
	C64.424217,122.807304 64.788033,119.815636 65.078552,117.031845 
	C65.287102,115.033508 65.859184,111.649216 66.814835,111.445694 
	C68.878609,111.006165 71.414528,111.935158 73.522125,112.847504 
	C74.930939,113.457359 75.934921,115.002403 77.138245,116.504974 
z"/>
<path fill="#60B197" opacity="1.000000" stroke="none" 
	d="
M163.347839,167.063217 
	C161.574051,166.706604 160.147476,166.411987 158.271820,165.735107 
	C156.882431,164.901108 155.942139,164.449371 155.001831,163.997635 
	C155.921051,162.874191 156.840256,161.750732 157.863007,160.500732 
	C157.119873,158.937744 156.093185,156.778366 155.077454,154.250580 
	C159.694107,158.388977 164.465591,162.741043 168.858353,167.446640 
	C173.151810,172.045853 177.855133,175.916382 183.896500,178.568695 
	C180.325058,179.156845 176.596054,179.560913 172.868515,179.548035 
	C172.245850,179.545898 171.629425,177.732574 171.250961,176.328339 
	C171.784042,175.582748 172.076263,175.264999 172.368500,174.947235 
	C172.254715,174.842957 172.140930,174.738693 172.027145,174.634415 
	C171.684357,175.089203 171.341568,175.543991 170.998779,175.998779 
	C169.155487,175.874725 167.312195,175.750656 165.080597,175.600449 
	C165.841705,172.142349 168.756058,168.705719 163.347839,167.063217 
z"/>
<path fill="#5EAD86" opacity="1.000000" stroke="none" 
	d="
M111.078957,107.421005 
	C111.760017,108.413284 112.380638,109.827599 113.002884,111.623665 
	C112.669762,114.393799 112.334991,116.782173 111.697731,119.655983 
	C110.930634,120.761665 110.466042,121.381912 110.001450,122.002167 
	C106.850105,129.077148 99.528091,128.668930 93.733757,130.833221 
	C91.210701,131.775635 88.217270,131.458725 85.030785,131.751068 
	C85.142258,128.018158 83.840134,125.936203 79.582039,127.491241 
	C78.786682,127.781700 77.465660,126.632759 76.387238,126.148102 
	C77.351471,125.036308 78.315704,123.924507 79.313438,122.774094 
	C78.600792,121.125504 77.839188,119.363632 77.099716,117.230042 
	C80.328087,119.963379 83.730881,122.894569 86.679512,126.227539 
	C89.116951,128.982697 91.726250,129.572601 95.026306,128.466415 
	C95.941292,128.159698 96.938431,128.108002 97.882454,127.876427 
	C106.894554,125.665825 110.306969,120.454262 111.078957,107.421005 
z"/>
<path fill="#64B38F" opacity="1.000000" stroke="none" 
	d="
M142.983337,141.629410 
	C142.667465,141.967728 142.189529,141.982849 141.352936,142.004608 
	C139.190521,140.116333 137.386780,138.221420 135.294266,136.163742 
	C134.072113,132.128296 134.339981,129.018997 136.805817,125.165543 
	C138.686325,122.226791 137.061905,117.045204 136.924835,112.130249 
	C136.238495,110.928711 135.624039,110.458290 135.009583,109.987869 
	C135.007843,109.546387 135.006104,109.104897 134.998718,107.936882 
	C134.645645,105.154442 134.298233,103.098541 133.986633,101.009430 
	C134.022461,100.976227 134.093933,100.909615 134.093933,100.909615 
	C136.068680,106.067337 138.755966,111.087067 139.790024,116.426949 
	C140.599976,120.609612 139.571426,125.217209 138.977356,129.584000 
	C138.347015,134.217346 140.260971,137.820999 142.983337,141.629410 
z"/>
<path fill="#6BAF9A" opacity="1.000000" stroke="none" 
	d="
M218.356781,163.019089 
	C218.971985,161.347504 219.456100,159.028214 220.878937,157.772598 
	C230.520309,149.264328 231.845596,141.019745 224.478607,129.492126 
	C224.149170,128.976639 224.180527,128.230560 224.048233,127.207947 
	C234.201965,133.476715 233.089691,151.036255 223.620590,158.012909 
	C221.776718,159.371429 220.303955,161.233643 218.356781,163.019089 
z"/>
<path fill="#60B28A" opacity="1.000000" stroke="none" 
	d="
M180.227051,85.906670 
	C177.069580,86.185173 174.272995,86.066177 171.025375,84.680489 
	C168.272995,83.506104 164.204803,85.415565 160.306793,85.946503 
	C164.499802,81.725128 169.980225,81.922905 175.577347,82.882225 
	C176.836792,83.098099 178.043198,83.623413 179.694916,84.389519 
	C180.152893,85.150734 180.189972,85.528702 180.227051,85.906670 
z"/>
<path fill="#64B38F" opacity="1.000000" stroke="none" 
	d="
M117.130424,85.516449 
	C115.227890,85.815308 113.096779,86.144485 111.319572,85.499107 
	C105.598663,83.421616 99.994003,84.028488 93.950195,85.312271 
	C101.393250,80.263252 109.228378,82.487328 117.130424,85.516449 
z"/>
<path fill="#6BAF9A" opacity="1.000000" stroke="none" 
	d="
M200.360565,172.049164 
	C206.355286,172.316132 210.405487,167.607193 215.782593,165.043945 
	C214.232864,167.436325 212.335022,169.850052 210.373138,172.210556 
	C207.179764,176.052719 203.930481,172.766510 200.360565,172.049164 
z"/>
<path fill="#5BA99A" opacity="1.000000" stroke="none" 
	d="
M218.810974,187.667603 
	C215.842178,188.701691 212.840576,189.398300 208.860809,190.321930 
	C210.320526,187.255707 211.172607,185.465897 212.046295,183.288559 
	C214.304657,184.377411 216.541412,185.853760 218.810974,187.667603 
z"/>
<path fill="#5EAD86" opacity="1.000000" stroke="none" 
	d="
M69.941635,138.427521 
	C73.082726,140.494278 77.531044,141.958954 76.974045,147.691284 
	C74.638222,145.008377 72.312790,141.902390 69.941635,138.427521 
z"/>
<path fill="#64B38F" opacity="1.000000" stroke="none" 
	d="
M126.300476,95.108917 
	C125.717339,93.837059 125.421562,92.709213 125.098145,91.230591 
	C128.053299,93.986801 131.036102,97.093803 134.056427,100.555206 
	C134.093933,100.909615 134.022461,100.976227 133.679810,100.929344 
	C132.223892,99.922745 131.110611,98.963028 129.997330,98.003319 
	C128.860840,97.086525 127.724342,96.169731 126.300476,95.108917 
z"/>
<path fill="#5CAB8D" opacity="1.000000" stroke="none" 
	d="
M69.805176,179.685272 
	C71.317268,184.057892 68.930489,187.083893 65.493172,189.903259 
	C66.625710,186.615005 68.076752,183.229233 69.805176,179.685272 
z"/>
<path fill="#60B197" opacity="1.000000" stroke="none" 
	d="
M194.442810,179.005600 
	C191.480606,179.121796 188.963028,179.235962 186.179459,179.103577 
	C192.534729,178.973129 199.155991,179.089264 205.960297,179.576965 
	C202.391373,179.633560 198.639420,179.318573 194.442810,179.005600 
z"/>
<path fill="#58AE90" opacity="1.000000" stroke="none" 
	d="
M126.960953,168.391159 
	C131.456192,168.396759 133.721664,171.340637 134.922180,175.820709 
	C132.310165,173.693756 129.713989,171.191376 126.960953,168.391159 
z"/>
<path fill="#64B38F" opacity="1.000000" stroke="none" 
	d="
M155.088196,153.561508 
	C150.987427,153.816391 148.963364,151.338226 148.045380,147.240646 
	C150.378403,148.980438 152.713058,151.094421 155.088196,153.561508 
z"/>
<path fill="#B2D4D0" opacity="1.000000" stroke="none" 
	d="
M140.346527,247.140350 
	C141.797333,245.146347 143.595352,243.058243 145.745758,241.010590 
	C144.296646,243.049423 142.495193,245.047836 140.346527,247.140350 
z"/>
<path fill="#64B38F" opacity="1.000000" stroke="none" 
	d="
M124.105637,89.538849 
	C121.607872,89.870430 118.594116,90.806763 118.008720,86.474251 
	C120.019852,87.117561 122.049377,88.141899 124.105637,89.538849 
z"/>
<path fill="#B2D4D0" opacity="1.000000" stroke="none" 
	d="
M152.398651,234.979279 
	C152.276962,232.839188 152.482422,230.588608 152.872757,228.075928 
	C154.915115,230.258041 155.704254,232.652023 152.398651,234.979279 
z"/>
<path fill="#ADD5C2" opacity="1.000000" stroke="none" 
	d="
M180.522171,86.061638 
	C180.189972,85.528702 180.152893,85.150734 180.084656,84.489044 
	C181.995819,85.568748 183.938126,86.932182 185.982468,88.616409 
	C184.328766,88.030334 182.573013,87.123466 180.522171,86.061638 
z"/>
<path fill="#B2D4D0" opacity="1.000000" stroke="none" 
	d="
M77.614616,171.019623 
	C77.722542,171.741531 77.514183,172.569092 77.171402,173.707214 
	C77.036972,174.017776 76.999702,174.005188 76.807922,174.132660 
	C76.369057,174.448868 76.205132,174.693329 76.124359,174.993561 
	C75.848381,175.212219 75.572411,175.430862 74.876892,175.994690 
	C73.684685,176.576660 72.912010,176.813446 72.139328,177.050232 
	C73.859001,175.075241 75.578667,173.100250 77.614616,171.019623 
z"/>
<path fill="#5CAB8D" opacity="1.000000" stroke="none" 
	d="
M72.021614,177.282898 
	C72.912010,176.813446 73.684685,176.576660 74.744484,176.225510 
	C74.858665,178.455032 74.238724,180.300110 70.898170,179.290680 
	C70.999474,178.558838 71.451683,178.037201 72.021614,177.282898 
z"/>
<path fill="#58AE90" opacity="1.000000" stroke="none" 
	d="
M150.978577,192.371796 
	C153.486435,190.786194 155.312714,190.574478 153.983856,194.826599 
	C152.988968,194.329590 152.051529,193.493652 150.978577,192.371796 
z"/>
<path fill="#6BAF9A" opacity="1.000000" stroke="none" 
	d="
M222.014252,124.639496 
	C220.804367,123.834297 219.435303,122.720657 218.091156,121.220398 
	C219.362411,121.999535 220.608734,123.165298 222.014252,124.639496 
z"/>
<path fill="#64B38F" opacity="1.000000" stroke="none" 
	d="
M162.396393,105.082443 
	C162.766403,104.259209 163.441513,103.268555 164.116623,102.277901 
	C165.035690,103.013237 165.954758,103.748573 166.895721,104.845886 
	C165.512253,105.110260 164.106873,105.012642 162.396393,105.082443 
z"/>
<path fill="#B2D4D0" opacity="1.000000" stroke="none" 
	d="
M224.038132,224.393051 
	C225.378220,224.096390 226.843643,224.145706 228.748672,224.133698 
	C227.936752,227.485992 226.017029,225.863083 224.038132,224.393051 
z"/>
<path fill="#58AE90" opacity="1.000000" stroke="none" 
	d="
M145.969986,187.390381 
	C147.191971,188.197159 148.557236,189.293930 149.918304,190.776428 
	C148.647171,190.001572 147.380234,188.840973 145.969986,187.390381 
z"/>
<path fill="#B2D4D0" opacity="1.000000" stroke="none" 
	d="
M211.045135,210.346832 
	C212.018173,211.150604 213.048752,212.278946 214.012665,213.745575 
	C212.998230,212.946365 212.050446,211.808884 211.045135,210.346832 
z"/>
<path fill="#64B38F" opacity="1.000000" stroke="none" 
	d="
M208.932678,146.413483 
	C209.171829,146.967728 209.462677,147.889709 209.458313,148.905090 
	C209.103531,148.259399 209.043961,147.520294 208.932678,146.413483 
z"/>
<path fill="#67AE9E" opacity="1.000000" stroke="none" 
	d="
M109.023834,206.676361 
	C108.134674,206.170944 107.105179,205.380905 106.113869,204.212555 
	C107.062538,204.686737 107.973022,205.539246 109.023834,206.676361 
z"/>
<path fill="#B2D4D0" opacity="1.000000" stroke="none" 
	d="
M104.993729,242.365631 
	C105.974831,242.827972 107.041580,243.596252 108.021393,244.727478 
	C106.982750,244.284134 106.031059,243.477844 104.993729,242.365631 
z"/>
<path fill="#64B38F" opacity="1.000000" stroke="none" 
	d="
M157.390625,109.068077 
	C157.874939,108.422386 158.692642,107.733826 159.875946,107.065811 
	C159.402359,107.732643 158.563202,108.378929 157.390625,109.068077 
z"/>
<path fill="#64B38F" opacity="1.000000" stroke="none" 
	d="
M92.844467,85.729095 
	C93.375977,86.455605 93.663445,87.358093 93.933662,88.739258 
	C93.477753,88.113655 93.039085,87.009354 92.844467,85.729095 
z"/>
<path fill="#B2D4D0" opacity="1.000000" stroke="none" 
	d="
M229.362793,224.387207 
	C229.444458,223.602234 229.851776,222.998947 230.507751,222.262115 
	C230.400436,222.942001 230.044434,223.755447 229.362793,224.387207 
z"/>
<path fill="#6BAF9A" opacity="1.000000" stroke="none" 
	d="
M216.256561,121.007782 
	C215.706665,120.177330 215.406097,119.346542 215.078690,118.184433 
	C215.647171,118.340042 216.242508,118.826958 216.929245,119.870590 
	C217.015274,120.618866 217.009903,120.810425 217.004547,121.001976 
	C217.004547,121.001976 216.505905,121.007439 216.256561,121.007782 
z"/>
<path fill="#B2D4D0" opacity="1.000000" stroke="none" 
	d="
M78.240234,215.360687 
	C78.773949,215.553101 79.335632,216.028397 79.942696,216.793884 
	C79.414772,216.603882 78.841484,216.123734 78.240234,215.360687 
z"/>
<path fill="#67AE9E" opacity="1.000000" stroke="none" 
	d="
M111.300537,211.000916 
	C110.997246,210.519974 111.001282,210.039673 111.025558,209.199219 
	C111.642769,209.358566 112.239754,209.878082 112.836540,210.696167 
	C112.426842,210.996994 112.017357,210.999283 111.300537,211.000916 
z"/>
<path fill="#58AE90" opacity="1.000000" stroke="none" 
	d="
M123.992538,165.369843 
	C124.523392,165.575851 125.173256,166.057190 125.864258,166.866058 
	C125.307449,166.677444 124.709496,166.161316 123.992538,165.369843 
z"/>
<path fill="#64B38F" opacity="1.000000" stroke="none" 
	d="
M196.640167,161.961060 
	C196.448318,162.495560 195.983154,163.158936 195.194153,163.883331 
	C195.369171,163.326233 195.868011,162.708084 196.640167,161.961060 
z"/>
<path fill="#64B38F" opacity="1.000000" stroke="none" 
	d="
M201.648224,156.956604 
	C201.443863,157.490707 200.964447,158.151108 200.157211,158.860870 
	C200.343979,158.301117 200.858582,157.692001 201.648224,156.956604 
z"/>
<path fill="#B2D4D0" opacity="1.000000" stroke="none" 
	d="
M92.564743,227.971420 
	C92.479774,228.175003 92.394798,228.378586 92.093445,228.833801 
	C91.277962,228.610031 90.678856,228.134628 90.010849,227.357086 
	C89.941956,227.054947 89.989334,227.013107 90.341736,226.986572 
	C91.317673,227.297165 91.941208,227.634293 92.564743,227.971420 
z"/>
<path fill="#ADD5C2" opacity="1.000000" stroke="none" 
	d="
M197.918976,100.739578 
	C197.314774,100.810242 196.733032,100.572456 195.880249,100.155487 
	C195.671005,99.791611 195.732803,99.606934 195.941467,99.168869 
	C196.706039,99.420700 197.323715,99.925911 197.918976,100.739578 
z"/>
<path fill="#64B38F" opacity="1.000000" stroke="none" 
	d="
M105.996178,101.345688 
	C106.527924,101.552719 107.186012,102.033752 107.887543,102.843399 
	C107.328156,102.654572 106.725342,102.137131 105.996178,101.345688 
z"/>
<path fill="#B2D4D0" opacity="1.000000" stroke="none" 
	d="
M136.319962,250.007812 
	C136.514404,249.720139 137.032196,249.382538 137.869751,249.024445 
	C137.674118,249.321915 137.158722,249.639893 136.319962,250.007812 
z"/>
<path fill="#58AE90" opacity="1.000000" stroke="none" 
	d="
M119.013115,160.365906 
	C119.259430,160.326477 119.590462,160.523636 119.921555,160.933228 
	C119.647026,160.964615 119.372429,160.783569 119.013115,160.365906 
z"/>
<path fill="#B2D4D0" opacity="1.000000" stroke="none" 
	d="
M88.904671,226.101791 
	C88.617004,225.934143 88.329330,225.766479 87.990021,225.329285 
	C87.938385,225.059753 87.985054,225.014603 88.259125,225.045044 
	C88.684158,225.388275 88.835121,225.701065 88.966057,226.036163 
	C88.946037,226.058441 88.904671,226.101791 88.904671,226.101791 
z"/>
<path fill="#B2D4D0" opacity="1.000000" stroke="none" 
	d="
M95.969086,233.308670 
	C96.253082,233.187408 96.602043,233.334305 96.956085,233.788223 
	C96.652122,233.922440 96.343079,233.749634 95.969086,233.308670 
z"/>
<path fill="#B2D4D0" opacity="1.000000" stroke="none" 
	d="
M94.965714,232.313171 
	C95.255608,232.187500 95.608398,232.331116 95.960037,232.785233 
	C95.648788,232.924652 95.338699,232.753555 94.965714,232.313171 
z"/>
<path fill="#B2D4D0" opacity="1.000000" stroke="none" 
	d="
M93.966209,231.311646 
	C94.256866,231.186874 94.609360,231.331635 94.959381,231.786926 
	C94.647301,231.925369 94.337669,231.753250 93.966209,231.311646 
z"/>
<path fill="#B2D4D0" opacity="1.000000" stroke="none" 
	d="
M92.969437,230.307556 
	C93.255295,230.186356 93.604828,230.333725 93.956940,230.788620 
	C93.650719,230.922791 93.341911,230.749435 92.969437,230.307556 
z"/>
<path fill="#B2D4D0" opacity="1.000000" stroke="none" 
	d="
M91.970497,229.307266 
	C92.255936,229.185806 92.604385,229.333328 92.957199,229.787628 
	C92.652222,229.921692 92.342865,229.748962 91.970497,229.307266 
z"/>
<path fill="#ADD5C2" opacity="1.000000" stroke="none" 
	d="
M196.024033,98.702942 
	C195.753555,98.814941 195.418152,98.657204 195.055054,98.205093 
	C195.337921,98.084877 195.648529,98.259041 196.024033,98.702942 
z"/>
<path fill="#67B193" opacity="1.000000" stroke="none" 
	d="
M217.288300,120.984665 
	C217.009903,120.810425 217.015274,120.618866 217.041351,120.140564 
	C217.347305,120.038452 217.632507,120.223091 218.025574,120.642593 
	C217.946320,120.907410 217.759186,120.937378 217.288300,120.984665 
z"/>
<path fill="#B2D4D0" opacity="1.000000" stroke="none" 
	d="
M89.919601,227.077301 
	C89.612823,226.930603 89.328392,226.761566 88.974319,226.347153 
	C88.904671,226.101791 88.946037,226.058441 89.238770,226.069336 
	C89.684105,226.391174 89.836723,226.702148 89.989334,227.013107 
	C89.989334,227.013107 89.941956,227.054947 89.919601,227.077301 
z"/>
<path fill="#B2D4D0" opacity="1.000000" stroke="none" 
	d="
M97.967255,235.309509 
	C98.252525,235.187500 98.600967,235.334976 98.955261,235.789215 
	C98.650887,235.923645 98.340660,235.751312 97.967255,235.309509 
z"/>
<path fill="#ADD5C2" opacity="1.000000" stroke="none" 
	d="
M195.024811,97.701714 
	C194.750504,97.815628 194.412033,97.659882 194.051666,97.207275 
	C194.340073,97.084297 194.650375,97.258171 195.024811,97.701714 
z"/>
<path fill="#B2D4D0" opacity="1.000000" stroke="none" 
	d="
M87.915085,225.082367 
	C87.605629,224.937531 87.319473,224.770096 86.983978,224.332275 
	C86.934647,224.061874 86.982483,224.013504 87.261658,224.037048 
	C87.688911,224.378601 87.836983,224.696594 87.985054,225.014603 
	C87.985054,225.014603 87.938385,225.059753 87.915085,225.082367 
z"/>
<path fill="#B2D4D0" opacity="1.000000" stroke="none" 
	d="
M222.968704,223.306366 
	C223.248566,223.187668 223.591507,223.339249 223.949982,223.792206 
	C223.654282,223.921249 223.343033,223.748947 222.968704,223.306366 
z"/>
<path fill="#B2D4D0" opacity="1.000000" stroke="none" 
	d="
M85.977112,223.352966 
	C86.092125,222.971039 86.264603,222.838028 86.777237,222.984894 
	C87.072426,223.514313 87.027458,223.763901 86.982483,224.013504 
	C86.982483,224.013504 86.934647,224.061874 86.910225,224.085541 
	C86.602058,223.940109 86.318321,223.770996 85.977112,223.352966 
z"/>
<path fill="#ADD5C2" opacity="1.000000" stroke="none" 
	d="
M194.025360,96.700439 
	C193.749054,96.815132 193.408707,96.660820 193.050964,96.207565 
	C193.342819,96.082886 193.652069,96.257156 194.025360,96.700439 
z"/>
<path fill="#B2D4D0" opacity="1.000000" stroke="none" 
	d="
M221.966446,222.309448 
	C222.250595,222.187790 222.596558,222.336853 222.952881,222.790100 
	C222.651581,222.922913 222.339920,222.751541 221.966446,222.309448 
z"/>
<path fill="#B2D4D0" opacity="1.000000" stroke="none" 
	d="
M84.965454,222.310608 
	C85.259415,222.184631 85.614975,222.328506 85.964127,222.785309 
	C85.647507,222.925659 85.337288,222.753067 84.965454,222.310608 
z"/>
<path fill="#B2D4D0" opacity="1.000000" stroke="none" 
	d="
M220.965958,221.309906 
	C221.250656,221.188217 221.597122,221.337128 221.952698,221.790771 
	C221.650452,221.923843 221.339081,221.752167 220.965958,221.309906 
z"/>
<path fill="#B2D4D0" opacity="1.000000" stroke="none" 
	d="
M101.966949,239.309402 
	C102.253548,239.186996 102.602577,239.334427 102.956200,239.788773 
	C102.650330,239.923538 102.339859,239.751389 101.966949,239.309402 
z"/>
<path fill="#64B38F" opacity="1.000000" stroke="none" 
	d="
M104.944519,100.311386 
	C105.110046,100.272354 105.395630,100.482094 105.832977,100.913940 
	C105.678024,100.944092 105.371307,100.752129 104.944519,100.311386 
z"/>
<path fill="#B2D4D0" opacity="1.000000" stroke="none" 
	d="
M111.998878,249.249786 
	C112.234810,249.063385 112.507690,249.208755 112.866989,249.628326 
	C112.688400,249.718842 112.382545,249.611847 111.998878,249.249786 
z"/>
<path fill="#B2D4D0" opacity="1.000000" stroke="none" 
	d="
M110.890015,248.218079 
	C111.030853,248.198395 111.353378,248.406784 111.852386,248.841492 
	C111.709816,248.860611 111.390762,248.653381 110.890015,248.218079 
z"/>
<path fill="#B2D4D0" opacity="1.000000" stroke="none" 
	d="
M107.973206,245.325745 
	C108.243111,245.247757 108.586830,245.463913 108.971970,246.011963 
	C108.691277,246.102539 108.369148,245.861206 107.973206,245.325745 
z"/>
<path fill="#64B38F" opacity="1.000000" stroke="none" 
	d="
M156.276581,110.011375 
	C156.237885,109.838219 156.455811,109.570831 156.891068,109.159912 
	C156.916672,109.316635 156.724930,109.616890 156.276581,110.011375 
z"/>
<path fill="#B2D4D0" opacity="1.000000" stroke="none" 
	d="
M103.966690,241.310059 
	C104.253418,241.188156 104.602798,241.335449 104.954758,241.790894 
	C104.648003,241.925797 104.338676,241.752518 103.966690,241.310059 
z"/>
<path fill="#B2D4D0" opacity="1.000000" stroke="none" 
	d="
M146.312134,241.034576 
	C146.186874,240.743362 146.331543,240.390823 146.786682,240.040619 
	C146.925446,240.353058 146.753738,240.663147 146.312134,241.034576 
z"/>
<path fill="#B2D4D0" opacity="1.000000" stroke="none" 
	d="
M102.967072,240.309662 
	C103.254784,240.186844 103.604996,240.333588 103.957413,240.788239 
	C103.649605,240.923843 103.339592,240.751526 102.967072,240.309662 
z"/>
<path fill="#B2D4D0" opacity="1.000000" stroke="none" 
	d="
M147.313263,240.034912 
	C147.187714,239.743820 147.331726,239.390778 147.786514,239.040497 
	C147.925812,239.353149 147.754303,239.663071 147.313263,240.034912 
z"/>
<path fill="#B2D4D0" opacity="1.000000" stroke="none" 
	d="
M96.967766,234.309448 
	C97.254776,234.186691 97.604416,234.333344 97.957062,234.788025 
	C97.650185,234.923645 97.340294,234.751251 96.967766,234.309448 
z"/>
<path fill="#B2D4D0" opacity="1.000000" stroke="none" 
	d="
M148.312775,239.035477 
	C148.188522,238.742294 148.333145,238.387482 148.790024,238.040985 
	C148.928726,238.357468 148.755188,238.665665 148.312775,239.035477 
z"/>
<path fill="#B2D4D0" opacity="1.000000" stroke="none" 
	d="
M100.966812,238.309402 
	C101.253189,238.187057 101.601913,238.334671 101.955841,238.788971 
	C101.650421,238.923553 101.339798,238.751450 100.966812,238.309402 
z"/>
<path fill="#B2D4D0" opacity="1.000000" stroke="none" 
	d="
M149.320496,238.043243 
	C149.191452,237.742157 149.332550,237.382568 149.790100,237.039398 
	C149.934586,237.365463 149.762604,237.675110 149.320496,238.043243 
z"/>
<path fill="#B2D4D0" opacity="1.000000" stroke="none" 
	d="
M99.966888,237.309235 
	C100.252869,237.187103 100.601273,237.334946 100.955444,237.789246 
	C100.650581,237.923538 100.339943,237.751373 99.966888,237.309235 
z"/>
<path fill="#B2D4D0" opacity="1.000000" stroke="none" 
	d="
M150.327103,237.046539 
	C150.193909,236.743607 150.330688,236.381027 150.786209,236.036407 
	C150.935669,236.365189 150.766373,236.676025 150.327103,237.046539 
z"/>
<path fill="#B2D4D0" opacity="1.000000" stroke="none" 
	d="
M98.967041,236.309082 
	C99.251762,236.187469 99.599396,236.335693 99.954391,236.789856 
	C99.651146,236.923508 99.340553,236.751221 98.967041,236.309082 
z"/>
<path fill="#B2D4D0" opacity="1.000000" stroke="none" 
	d="
M151.322433,236.040649 
	C151.192993,235.745163 151.331284,235.385757 151.785446,235.037781 
	C151.930939,235.358383 151.760559,235.667557 151.322433,236.040649 
z"/>
<path fill="#B2D4D0" opacity="1.000000" stroke="none" 
	d="
M83.969688,221.306290 
	C84.257484,221.184006 84.609528,221.330475 84.961212,221.786804 
	C84.651878,221.922791 84.342911,221.748917 83.969688,221.306290 
z"/>
<path fill="#B2D4D0" opacity="1.000000" stroke="none" 
	d="
M79.682358,168.964020 
	C79.809280,169.255493 79.670197,169.614151 79.216019,169.963562 
	C79.072746,169.646622 79.244545,169.338913 79.682358,168.964020 
z"/>
<path fill="#58AE90" opacity="1.000000" stroke="none" 
	d="
M122.956497,164.328751 
	C123.123955,164.286819 123.401672,164.491043 123.823601,164.914139 
	C123.667465,164.946991 123.367111,164.760956 122.956497,164.328751 
z"/>
<path fill="#B2D4D0" opacity="1.000000" stroke="none" 
	d="
M83.680710,164.962494 
	C83.809494,165.255615 83.671364,165.614670 83.217842,165.964371 
	C83.072899,165.646149 83.243347,165.337296 83.680710,164.962494 
z"/>
<path fill="#B2D4D0" opacity="1.000000" stroke="none" 
	d="
M82.688911,165.968430 
	C82.811493,166.257812 82.668167,166.613159 82.211555,166.959808 
	C82.073181,166.645523 82.248093,166.339966 82.688911,165.968430 
z"/>
<path fill="#B2D4D0" opacity="1.000000" stroke="none" 
	d="
M81.679573,166.956940 
	C81.809212,167.259460 81.668579,167.620010 81.210220,167.962143 
	C81.064766,167.634140 81.237038,167.324554 81.679573,166.956940 
z"/>
<path fill="#B2D4D0" opacity="1.000000" stroke="none" 
	d="
M80.673706,167.954987 
	C80.806313,168.255127 80.669731,168.617355 80.214836,168.964417 
	C80.065857,168.638535 80.235184,168.327805 80.673706,167.954987 
z"/>
<path fill="#67AE9E" opacity="1.000000" stroke="none" 
	d="
M106.061958,203.680573 
	C105.849319,203.749863 105.572205,203.541901 105.166519,203.106232 
	C105.357796,203.053436 105.677643,203.228378 106.061958,203.680573 
z"/>
<path fill="#67AE9E" opacity="1.000000" stroke="none" 
	d="
M105.074799,202.674347 
	C104.861786,202.744278 104.579521,202.537109 104.170494,202.097702 
	C104.364334,202.042725 104.684937,202.219986 105.074799,202.674347 
z"/>
<path fill="#67AE9E" opacity="1.000000" stroke="none" 
	d="
M104.076096,201.672760 
	C103.863831,201.742340 103.580742,201.535294 103.170784,201.095337 
	C103.364357,201.040314 103.684807,201.218231 104.076096,201.672760 
z"/>
<path fill="#67AE9E" opacity="1.000000" stroke="none" 
	d="
M103.077942,200.645660 
	C102.870422,200.771317 102.569244,200.623840 102.118843,200.270935 
	C102.307838,200.167831 102.646057,200.270187 103.077942,200.645660 
z"/>
<path fill="#B2D4D0" opacity="1.000000" stroke="none" 
	d="
M84.714417,164.030762 
	C84.824364,164.366714 84.653854,164.687988 84.190697,164.976059 
	C84.076691,164.633926 84.255325,164.324997 84.714417,164.030762 
z"/>
<path fill="#5CAB8D" opacity="1.000000" stroke="none" 
	d="
M92.061546,190.686127 
	C91.882347,190.732224 91.603043,190.520081 91.182220,190.082489 
	C91.347618,190.047318 91.654533,190.237595 92.061546,190.686127 
z"/>
<path fill="#64B38F" opacity="1.000000" stroke="none" 
	d="
M125.024826,90.718063 
	C124.847534,90.758659 124.577591,90.538200 124.162872,90.098099 
	C124.322784,90.071304 124.627480,90.264160 125.024826,90.718063 
z"/>
<path fill="#5CAB8D" opacity="1.000000" stroke="none" 
	d="
M91.053879,189.688293 
	C90.871162,189.736191 90.596207,189.523788 90.183243,189.087692 
	C90.350700,189.052002 90.656166,189.240005 91.053879,189.688293 
z"/>
<path fill="#ADD5C2" opacity="1.000000" stroke="none" 
	d="
M188.032669,90.687508 
	C187.742386,90.812851 187.391052,90.668755 187.041016,90.215309 
	C187.352081,90.076660 187.661850,90.247360 188.032669,90.687508 
z"/>
<path fill="#5CAB8D" opacity="1.000000" stroke="none" 
	d="
M90.052261,188.685913 
	C89.867050,188.736008 89.593681,188.524673 89.183289,188.090759 
	C89.352211,188.053619 89.658150,188.239059 90.052261,188.685913 
z"/>
<path fill="#B2D4D0" opacity="1.000000" stroke="none" 
	d="
M78.686172,169.966171 
	C78.812477,170.258759 78.671593,170.616165 78.216347,170.964447 
	C78.074318,170.647217 78.246651,170.339096 78.686172,169.966171 
z"/>
<path fill="#5BA99A" opacity="1.000000" stroke="none" 
	d="
M212.013016,182.710861 
	C211.813370,182.857071 211.553680,182.707352 211.174591,182.334625 
	C211.322662,182.267822 211.621918,182.368942 212.013016,182.710861 
z"/>
<path fill="#B2D4D0" opacity="1.000000" stroke="none" 
	d="
M79.971756,217.289871 
	C80.250969,217.175583 80.595627,217.331879 80.954163,217.790924 
	C80.657761,217.915924 80.347488,217.738190 79.971756,217.289871 
z"/>
<path fill="#B2D4D0" opacity="1.000000" stroke="none" 
	d="
M219.965637,220.310638 
	C220.251190,220.188370 220.598587,220.336487 220.953461,220.790253 
	C220.649780,220.924271 220.338623,220.752655 219.965637,220.310638 
z"/>
<path fill="#ADD5C2" opacity="1.000000" stroke="none" 
	d="
M193.031128,95.692497 
	C192.743240,95.815201 192.395981,95.667030 192.043762,95.213318 
	C192.349777,95.079048 192.660751,95.250336 193.031128,95.692497 
z"/>
<path fill="#B2D4D0" opacity="1.000000" stroke="none" 
	d="
M82.969330,220.307037 
	C83.256691,220.183884 83.608246,220.329971 83.961487,220.785431 
	C83.653297,220.921936 83.343422,220.749084 82.969330,220.307037 
z"/>
<path fill="#B2D4D0" opacity="1.000000" stroke="none" 
	d="
M218.965866,219.309906 
	C219.252426,219.187653 219.599930,219.336121 219.953842,219.790466 
	C219.649109,219.924454 219.337952,219.752533 218.965866,219.309906 
z"/>
<path fill="#B2D4D0" opacity="1.000000" stroke="none" 
	d="
M81.968765,219.307388 
	C82.256630,219.183990 82.608238,219.330124 82.961380,219.785675 
	C82.652771,219.922379 82.342636,219.749634 81.968765,219.307388 
z"/>
<path fill="#B2D4D0" opacity="1.000000" stroke="none" 
	d="
M217.969711,218.305450 
	C218.251434,218.186966 218.595490,218.338409 218.951019,218.792664 
	C218.652359,218.922134 218.342194,218.748764 217.969711,218.305450 
z"/>
<path fill="#B2D4D0" opacity="1.000000" stroke="none" 
	d="
M80.969482,218.305634 
	C81.258286,218.182541 81.609222,218.329742 81.961456,218.786072 
	C81.652374,218.922104 81.341995,218.748993 80.969482,218.305634 
z"/>
<path fill="#B2D4D0" opacity="1.000000" stroke="none" 
	d="
M216.971359,217.307434 
	C217.252197,217.187408 217.598053,217.335480 217.953934,217.788086 
	C217.654755,217.920242 217.345581,217.747879 216.971359,217.307434 
z"/>
<path fill="#ADD5C2" opacity="1.000000" stroke="none" 
	d="
M189.032562,91.687759 
	C188.742279,91.813011 188.391052,91.668755 188.041046,91.215256 
	C188.352066,91.076752 188.661850,91.247498 189.032562,91.687759 
z"/>
<path fill="#B2D4D0" opacity="1.000000" stroke="none" 
	d="
M215.963989,216.314835 
	C216.253494,216.188416 216.605255,216.331863 216.958633,216.784348 
	C216.648911,216.923813 216.337601,216.754257 215.963989,216.314835 
z"/>
<path fill="#B2D4D0" opacity="1.000000" stroke="none" 
	d="
M214.962677,215.314117 
	C215.254608,215.188522 215.606445,215.333740 215.957123,215.788727 
	C215.644852,215.927307 215.333694,215.756104 214.962677,215.314117 
z"/>
<path fill="#64B38F" opacity="1.000000" stroke="none" 
	d="
M205.689896,152.955200 
	C205.723694,153.125183 205.506912,153.396622 205.063202,153.799408 
	C205.037277,153.639389 205.238297,153.348022 205.689896,152.955200 
z"/>
<path fill="#ADD5C2" opacity="1.000000" stroke="none" 
	d="
M192.031464,94.690643 
	C191.744263,94.813591 191.396439,94.666397 191.043823,94.213348 
	C191.349625,94.078506 191.660233,94.249504 192.031464,94.690643 
z"/>
<path fill="#B2D4D0" opacity="1.000000" stroke="none" 
	d="
M213.969177,214.304932 
	C214.252029,214.186859 214.596481,214.338806 214.950470,214.794403 
	C214.650253,214.923691 214.340530,214.749344 213.969177,214.304932 
z"/>
<path fill="#ADD5C2" opacity="1.000000" stroke="none" 
	d="
M191.031586,93.690277 
	C190.743057,93.813667 190.393860,93.667183 190.042648,93.213692 
	C190.350739,93.077927 190.660828,93.249168 191.031586,93.690277 
z"/>
<path fill="#ADD5C2" opacity="1.000000" stroke="none" 
	d="
M190.032318,92.688843 
	C189.742630,92.813202 189.392212,92.667961 189.041748,92.214432 
	C189.351669,92.077187 189.661652,92.248207 190.032318,92.688843 
z"/>
<path fill="#ADD5C2" opacity="1.000000" stroke="none" 
	d="
M187.032608,89.687515 
	C186.742416,89.812820 186.391052,89.668716 186.040924,89.215271 
	C186.351913,89.076645 186.661667,89.247375 187.032608,89.687515 
z"/>
<path fill="#5AAC84" opacity="1.000000" stroke="none" 
	d="
M129.997742,98.438156 
	C131.110611,98.963028 132.223892,99.922745 133.643982,100.962547 
	C134.298233,103.098541 134.645645,105.154442 134.995621,107.605774 
	C128.516724,107.595779 130.328934,102.647469 129.997742,98.438156 
z"/>
<path fill="#5AAC84" opacity="1.000000" stroke="none" 
	d="
M132.827026,112.473770 
	C133.128235,113.527435 133.114029,114.490562 133.099823,115.453697 
	C132.542664,115.296791 131.985519,115.139885 131.428360,114.982979 
	C131.789444,114.116402 132.150543,113.249817 132.827026,112.473770 
z"/>
<path fill="#5AAC84" opacity="1.000000" stroke="none" 
	d="
M135.076202,110.290924 
	C135.624039,110.458290 136.238495,110.928711 136.920197,111.701370 
	C136.372574,111.533730 135.757706,111.063850 135.076202,110.290924 
z"/>
<path fill="#5AAC84" opacity="1.000000" stroke="none" 
	d="
M110.303299,121.930916 
	C110.466042,121.381912 110.930634,120.761665 111.697052,120.070236 
	C111.534294,120.619263 111.069717,121.239464 110.303299,121.930916 
z"/>
<path fill="#000000" opacity="1.000000" stroke="none" 
	d="
M100.079216,211.141159 
	C100.489777,211.115387 100.900330,211.089615 101.755684,211.370941 
	C102.769371,211.841385 103.338257,212.004715 103.907150,212.168060 
	C103.907150,212.168060 104.001793,212.043365 104.082771,212.415939 
	C105.161270,215.189499 106.158783,217.590469 107.082764,220.348480 
	C104.676979,222.171265 102.344727,223.637009 100.012474,225.102753 
	C100.012474,225.102753 99.588379,224.982590 99.175537,224.653687 
	C94.413574,222.467438 94.979576,218.703735 95.477493,214.912735 
	C97.211021,213.542328 98.645119,212.341751 100.079216,211.141159 
z"/>
<path fill="#62A79A" opacity="1.000000" stroke="none" 
	d="
M95.178070,215.082565 
	C94.979576,218.703735 94.413574,222.467438 98.955811,224.636551 
	C97.138435,225.868835 95.127937,226.789352 92.841087,227.840652 
	C91.941208,227.634293 91.317673,227.297165 90.341736,226.986572 
	C89.836723,226.702148 89.684105,226.391174 89.258789,226.047043 
	C88.835121,225.701065 88.684158,225.388275 88.259125,225.045044 
	C87.836983,224.696594 87.688911,224.378601 87.261658,224.037048 
	C87.027458,223.763901 87.072426,223.514313 87.088074,222.884308 
	C89.197075,220.171677 91.335403,217.839508 94.006378,215.265091 
	C94.752045,215.042755 94.965057,215.062653 95.178070,215.082565 
z"/>
<path fill="#67AE9E" opacity="1.000000" stroke="none" 
	d="
M107.156296,219.991455 
	C106.158783,217.590469 105.161270,215.189499 104.019089,212.461288 
	C104.694206,211.788742 105.513992,211.443420 106.665092,211.051636 
	C107.661774,213.732727 108.327148,216.460297 108.685776,219.593109 
	C107.971458,219.996078 107.563881,219.993759 107.156296,219.991455 
z"/>
<path fill="#62A79A" opacity="1.000000" stroke="none" 
	d="
M107.082764,220.348480 
	C107.563881,219.993759 107.971458,219.996078 108.684540,219.997009 
	C108.006729,224.595184 105.394669,226.726074 100.302170,225.319641 
	C102.344727,223.637009 104.676979,222.171265 107.082764,220.348480 
z"/>
<path fill="#67AE9E" opacity="1.000000" stroke="none" 
	d="
M95.477493,214.912735 
	C94.965057,215.062653 94.752045,215.042755 94.218933,214.986633 
	C93.921753,214.518341 93.944672,214.086288 94.233002,213.191193 
	C95.000130,212.155029 95.501854,211.581909 96.003586,211.008789 
	C97.216972,210.895477 98.430367,210.782166 99.861481,210.905014 
	C98.645119,212.341751 97.211021,213.542328 95.477493,214.912735 
z"/>
<path fill="#62A79A" opacity="1.000000" stroke="none" 
	d="
M95.698265,211.017365 
	C95.501854,211.581909 95.000130,212.155029 94.243164,212.866440 
	C94.456261,212.345139 94.924606,211.685532 95.698265,211.017365 
z"/>
<path fill="#67AE9E" opacity="1.000000" stroke="none" 
	d="
M103.880669,211.882782 
	C103.338257,212.004715 102.769371,211.841385 102.062057,211.412476 
	C102.567146,211.297119 103.210663,211.447327 103.880669,211.882782 
z"/>
<path fill="#5CAB8D" opacity="1.000000" stroke="none" 
	d="
M76.299667,174.862808 
	C76.205132,174.693329 76.369057,174.448868 76.811859,174.150482 
	C76.871346,174.303055 76.693817,174.533478 76.299667,174.862808 
z"/>
<path fill="#000000" opacity="1.000000" stroke="none" 
	d="
M186.877930,109.002090 
	C188.313019,108.927910 190.330307,108.206192 191.087021,108.886543 
	C195.405579,112.769218 199.524811,116.892960 203.459518,121.167007 
	C204.250977,122.026718 203.954391,123.888062 203.999908,125.604385 
	C198.780365,121.334679 193.720367,116.748177 188.351181,112.005676 
	C188.021988,111.521141 187.873352,111.268173 187.312927,110.701569 
	C186.979141,109.875587 186.928543,109.438843 186.877930,109.002090 
z"/>
<path fill="#64B38F" opacity="1.000000" stroke="none" 
	d="
M186.656952,109.003578 
	C186.928543,109.438843 186.979141,109.875587 187.095490,110.635925 
	C186.807724,110.504112 186.454208,110.048721 186.047363,109.300888 
	C185.994019,109.008446 186.435974,109.005066 186.656952,109.003578 
z"/>
<path fill="#64B38F" opacity="1.000000" stroke="none" 
	d="
M140.649353,145.028564 
	C141.304153,145.794586 141.607941,146.580994 141.955566,147.681259 
	C140.796997,147.542465 139.594589,147.089828 138.392181,146.637192 
	C139.027557,146.107773 139.662949,145.578354 140.649353,145.028564 
z"/>
<path fill="#64B38F" opacity="1.000000" stroke="none" 
	d="
M143.005783,148.389130 
	C143.753082,149.476486 144.500366,150.950623 145.124023,152.709869 
	C144.335526,151.588608 143.670654,150.182251 143.005783,148.389130 
z"/>
<path fill="#58AD95" opacity="1.000000" stroke="none" 
	d="
M155.089874,164.321228 
	C155.942139,164.449371 156.882431,164.901108 157.911072,165.676117 
	C157.058899,165.547867 156.118423,165.096344 155.089874,164.321228 
z"/>
<path fill="#58AD95" opacity="1.000000" stroke="none" 
	d="
M170.999390,175.999390 
	C171.341568,175.543991 171.684357,175.089203 172.027145,174.634415 
	C172.140930,174.738693 172.254715,174.842957 172.368500,174.947235 
	C172.076263,175.264999 171.784042,175.582748 171.246521,175.950867 
	C171.001221,176.001221 171.000000,176.000000 170.999390,175.999390 
z"/>
</svg>