<svg xmlns="http://www.w3.org/2000/svg" viewBox="0 0 100 100" width="100" height="100">
  <defs>
    <linearGradient id="iconGradient" x1="0%" y1="0%" x2="100%" y2="100%">
      <stop offset="0%" style="stop-color:#10b981;stop-opacity:1" />
      <stop offset="100%" style="stop-color:#14b8a6;stop-opacity:1" />
    </linearGradient>
  </defs>
  
  <!-- Wrench (left side) -->
  <path fill="url(#iconGradient)" d="M 15,20 C 12,20 10,22 10,25 L 10,45 C 10,48 12,50 15,50 L 25,50 C 28,50 30,48 30,45 L 30,25 C 30,22 28,20 25,20 Z M 17,55 L 23,55 L 23,75 C 23,78 21,80 18,80 L 22,80 C 19,80 17,78 17,75 Z M 20,85 C 18,85 16,83 16,81 C 16,79 18,77 20,77 C 22,77 24,79 24,81 C 24,83 22,85 20,85 Z"/>
  
  <!-- Phone (top right) -->
  <path fill="url(#iconGradient)" d="M 55,10 C 52,10 50,12 50,15 L 50,40 C 50,43 52,45 55,45 L 75,45 C 78,45 80,43 80,40 L 80,15 C 80,12 78,10 75,10 Z M 60,17 L 70,17 L 70,20 L 60,20 Z M 65,35 C 63,35 62,33 62,32 C 62,30 63,29 65,29 C 67,29 68,30 68,32 C 68,33 67,35 65,35 Z"/>
  
  <!-- Phone (bottom left) -->
  <path fill="url(#iconGradient)" d="M 25,55 C 22,55 20,57 20,60 L 20,85 C 20,88 22,90 25,90 L 45,90 C 48,90 50,88 50,85 L 50,60 C 50,57 48,55 45,55 Z M 30,62 L 40,62 L 40,65 L 30,65 Z M 35,80 C 33,80 32,78 32,77 C 32,75 33,74 35,74 C 37,74 38,75 38,77 C 38,78 37,80 35,80 Z"/>
  
  <!-- Wrench (bottom right) -->
  <path fill="url(#iconGradient)" d="M 70,50 C 67,50 65,52 65,55 L 65,75 C 65,78 67,80 70,80 L 80,80 C 83,80 85,78 85,75 L 85,55 C 85,52 83,50 80,50 Z"/>
</svg>
