<svg width="200" height="60" viewBox="0 0 200 60" fill="none" xmlns="http://www.w3.org/2000/svg">
  <!-- Wrench 1 (Left) -->
  <path d="M15 35 L25 25 L30 30 L35 25 L30 20 L25 25 L15 15 C13 13 10 13 8 15 C6 17 6 20 8 22 Z" fill="url(#gradient1)"/>
  
  <!-- Phone 1 (Top) -->
  <rect x="22" y="8" width="16" height="24" rx="2" stroke="url(#gradient1)" stroke-width="2" fill="none"/>
  <line x1="26" y1="11" x2="34" y2="11" stroke="url(#gradient1)" stroke-width="1.5"/>
  <circle cx="30" cy="28" r="1.5" fill="url(#gradient1)"/>
  
  <!-- Wrench 2 (Right) -->
  <path d="M45 15 L35 25 L40 30 L35 35 L40 40 L45 35 L55 45 C57 47 60 47 62 45 C64 43 64 40 62 38 Z" fill="url(#gradient1)"/>
  
  <!-- Phone 2 (Bottom) -->
  <rect x="32" y="28" width="16" height="24" rx="2" stroke="url(#gradient1)" stroke-width="2" fill="none"/>
  <line x1="36" y1="31" x2="44" y2="31" stroke="url(#gradient1)" stroke-width="1.5"/>
  <circle cx="40" cy="48" r="1.5" fill="url(#gradient1)"/>
  
  <!-- Text: Fixate -->
  <text x="75" y="38" font-family="Arial, sans-serif" font-size="24" font-weight="bold" fill="#10b981">Fixate</text>
  
  <!-- Gradient Definition -->
  <defs>
    <linearGradient id="gradient1" x1="0%" y1="0%" x2="100%" y2="100%">
      <stop offset="0%" style="stop-color:#10b981;stop-opacity:1" />
      <stop offset="100%" style="stop-color:#14b8a6;stop-opacity:1" />
    </linearGradient>
  </defs>
</svg>
